<svg width="1835" height="670" viewBox="0 0 1835 670" fill="none" xmlns="http://www.w3.org/2000/svg">
<g clip-path="url(#clip0_650_4000)">
<path d="M28.0532 67.6455C22.7321 67.6455 17.9587 66.4718 13.6549 64.0852C9.39019 61.7377 6.0645 58.4513 3.59957 54.3042C1.17377 50.157 0 45.5013 0 40.3369C0 35.1725 1.2129 30.5558 3.59957 26.3696C6.0645 22.2224 9.42932 18.9751 13.694 16.6277C17.9979 14.2802 22.7712 13.0674 28.0923 13.0674C32.0832 13.0674 35.761 13.7325 39.1258 15.1018C42.4906 16.4321 45.3859 18.3491 47.6943 20.8531L44.1339 24.4525C39.9083 20.2271 34.6263 18.0753 28.288 18.0753C24.0232 18.0753 20.1889 19.0534 16.7067 21.0096C13.2245 22.9267 10.4857 25.5871 8.4903 28.9518C6.53401 32.3556 5.55586 36.1115 5.55586 40.2977C5.55586 44.484 6.53401 48.3182 8.4903 51.6829C10.4857 55.0475 13.2245 57.6688 16.7067 59.625C20.1498 61.5421 24.0232 62.5202 28.288 62.5202C34.7046 62.5202 39.9866 60.3684 44.1339 56.1039L47.6943 59.7033C45.3859 62.2464 42.4906 64.2026 39.0475 65.5719C35.6436 66.9021 31.9658 67.6064 28.0141 67.6064L28.0532 67.6455Z" fill="#3452A0"/>
<path d="M98.2447 67.6454C92.9236 67.6454 88.1111 66.4717 83.8073 64.0851C79.5035 61.6986 76.1387 58.4121 73.7129 54.3041C71.2871 50.157 70.1133 45.5012 70.1133 40.3368C70.1133 35.1724 71.3262 30.5558 73.7129 26.4478C76.1778 22.3006 79.5426 19.0142 83.8073 16.6667C88.1111 14.3193 92.9628 13.1064 98.2447 13.1064C103.527 13.1064 108.378 14.3193 112.643 16.6667C116.869 18.9751 120.233 22.2224 122.698 26.4086C125.163 30.5558 126.415 35.2116 126.415 40.3759C126.415 45.5403 125.163 50.157 122.698 54.3432C120.233 58.4904 116.908 61.7768 112.643 64.1243C108.378 66.5108 103.605 67.6845 98.2447 67.6845V67.6454ZM98.2447 62.5593C102.47 62.5593 106.344 61.6203 109.748 59.6641C113.191 57.747 115.851 55.0866 117.769 51.7219C119.725 48.3573 120.703 44.5622 120.703 40.3368C120.703 36.1114 119.725 32.3946 117.769 28.9908C115.851 25.5479 113.191 22.8875 109.748 20.9704C106.305 19.0533 102.47 18.0752 98.2447 18.0752C94.0191 18.0752 90.1848 19.0533 86.7417 20.9704C83.2987 22.8875 80.599 25.5479 78.6036 28.9908C76.6473 32.3946 75.6691 36.1505 75.6691 40.3368C75.6691 44.5231 76.6473 48.3573 78.6036 51.7219C80.599 55.1257 83.3378 57.7862 86.7417 59.6641C90.1848 61.5812 94.0583 62.5593 98.2447 62.5593Z" fill="#3452A0"/>
<path d="M209.831 13.5371V67.1762H204.393V24.2571L183.343 60.3686H180.643L159.594 24.4919V67.1762H154.194V13.5371H158.85L182.13 53.3263L205.214 13.5371H209.87H209.831Z" fill="#3452A0"/>
<path d="M242.385 13.5371H248.019V67.1762H242.385V13.5371Z" fill="#3452A0"/>
<path d="M280.532 13.5371H302.325C307.999 13.5371 313.007 14.6717 317.31 16.98C321.693 19.2884 325.057 22.4574 327.405 26.5263C329.792 30.5561 331.005 35.1727 331.005 40.3762C331.005 45.5797 329.792 50.2746 327.405 54.3435C325.018 58.3733 321.653 61.5424 317.31 63.8507C312.968 66.1199 307.959 67.2154 302.325 67.2154H280.532V13.5371ZM302.012 62.2857C306.707 62.2857 310.816 61.3859 314.337 59.547C317.897 57.6691 320.597 55.0869 322.553 51.7613C324.51 48.4358 325.488 44.6408 325.488 40.3762C325.488 36.1117 324.51 32.3167 322.553 29.0302C320.636 25.7047 317.897 23.1225 314.337 21.2446C310.816 19.3666 306.707 18.4276 302.012 18.4276H286.166V62.2857H302.012Z" fill="#3452A0"/>
<path d="M392.432 52.8568H362.539L356.123 67.1762H350.254L374.747 13.5371H380.303L404.795 67.1762H398.848L392.432 52.8568ZM390.358 48.2402L377.485 19.4448L364.613 48.2402H390.319H390.358Z" fill="#3452A0"/>
<path d="M463.875 13.5371H485.668C491.341 13.5371 496.349 14.6717 500.653 16.98C505.035 19.2884 508.4 22.4574 510.748 26.5263C513.134 30.5561 514.347 35.1727 514.347 40.3762C514.347 45.5797 513.134 50.2746 510.748 54.3435C508.361 58.3733 504.996 61.5424 500.653 63.8507C496.31 66.1199 491.302 67.2154 485.668 67.2154H463.875V13.5371ZM485.355 62.2857C490.05 62.2857 494.158 61.3859 497.68 59.547C501.24 57.6691 503.94 55.0869 505.896 51.7613C507.852 48.4358 508.831 44.6408 508.831 40.3762C508.831 36.1117 507.852 32.3167 505.896 29.0302C503.979 25.7047 501.24 23.1225 497.68 21.2446C494.158 19.3666 490.05 18.4276 485.355 18.4276H469.509V62.2857H485.355Z" fill="#3452A0"/>
<path d="M580.04 62.2857V67.1762H542.127V13.5371H578.866V18.4276H547.761V37.5202H575.501V42.3716H547.761V62.2857H580.04Z" fill="#3452A0"/>
<path d="M649.136 18.4276V39.4764H676.876V44.3669H649.136V67.1371H643.502V13.5371H680.241V18.4276H649.136Z" fill="#3452A0"/>
<path d="M707.042 13.5371H712.676V67.1762H707.042V13.5371Z" fill="#3452A0"/>
<path d="M789.95 13.5371V67.1762H785.294L750.824 23.6311V67.1762H745.19V13.5371H749.846L784.394 57.0822V13.5371H789.95Z" fill="#3452A0"/>
<path d="M857.56 13.5371H879.353C885.026 13.5371 890.034 14.6717 894.338 16.98C898.72 19.2884 902.085 22.4574 904.432 26.5263C906.819 30.5561 908.032 35.1727 908.032 40.3762C908.032 45.5797 906.819 50.2746 904.432 54.3435C902.046 58.3733 898.681 61.5424 894.338 63.8507C889.995 66.1199 884.987 67.2154 879.353 67.2154H857.56V13.5371ZM879.079 62.2857C883.774 62.2857 887.882 61.3859 891.403 59.547C894.964 57.6691 897.664 55.0869 899.62 51.7613C901.576 48.4358 902.554 44.6408 902.554 40.3762C902.554 36.1117 901.576 32.3167 899.62 29.0302C897.703 25.7047 894.964 23.1225 891.403 21.2446C887.882 19.3666 883.774 18.4276 879.079 18.4276H863.233V62.2857H879.079Z" fill="#3452A0"/>
<path d="M973.763 62.2857V67.1762H935.85V13.5371H972.589V18.4276H941.484V37.5202H969.224V42.3716H941.484V62.2857H973.763Z" fill="#3452A0"/>
<path d="M1070.83 52.8568H1040.94L1034.53 67.1762H1028.66L1053.15 13.5371H1058.7L1083.2 67.1762H1077.25L1070.83 52.8568ZM1068.76 48.2402L1055.89 19.4448L1043.02 48.2402H1068.72H1068.76Z" fill="#3452A0"/>
<path d="M1151.94 13.5369V67.1761H1147.29L1112.82 23.6309V67.1761H1107.18V13.5369H1111.84L1146.39 57.082V13.5369H1151.94ZM1134.73 8.68555C1133.51 8.68555 1132.46 8.41168 1131.56 7.90307C1130.66 7.39445 1129.68 6.61197 1128.62 5.63387C1127.68 4.89051 1126.94 4.3819 1126.43 4.02978C1125.88 3.67766 1125.34 3.48204 1124.71 3.48204C1123.5 3.48204 1122.56 3.95153 1121.81 4.81226C1121.11 5.67299 1120.76 6.84672 1120.72 8.37255H1117.39C1117.51 5.82949 1118.18 3.83416 1119.43 2.30832C1120.64 0.743357 1122.28 0 1124.32 0C1125.45 0 1126.47 0.273869 1127.37 0.782482C1128.27 1.29109 1129.29 2.03445 1130.5 3.05168C1131.32 3.75591 1131.99 4.26453 1132.54 4.65577C1133.08 5.00788 1133.71 5.2035 1134.37 5.2035C1135.47 5.2035 1136.37 4.81226 1137.07 3.99066C1137.82 3.12993 1138.25 1.9562 1138.36 0.430365H1141.61C1141.53 2.97343 1140.87 5.00788 1139.66 6.4946C1138.44 7.98131 1136.8 8.68555 1134.77 8.68555H1134.73Z" fill="#3452A0"/>
<path d="M1207.85 67.6454C1202.53 67.6454 1197.72 66.4717 1193.41 64.0851C1189.11 61.6986 1185.75 58.4121 1183.32 54.3041C1180.89 50.157 1179.72 45.5012 1179.72 40.3368C1179.72 35.1724 1180.93 30.5558 1183.32 26.4478C1185.79 22.3006 1189.15 19.0142 1193.41 16.6667C1197.72 14.3193 1202.57 13.1064 1207.85 13.1064C1213.13 13.1064 1217.99 14.3193 1222.25 16.6667C1226.48 18.9751 1229.84 22.2224 1232.31 26.4086C1234.77 30.5558 1236.02 35.2116 1236.02 40.3759C1236.02 45.5403 1234.77 50.157 1232.31 54.3432C1229.84 58.4904 1226.52 61.7768 1222.25 64.1243C1217.99 66.5108 1213.21 67.6845 1207.85 67.6845V67.6454ZM1207.85 62.5593C1212.08 62.5593 1215.95 61.6203 1219.36 59.6641C1222.8 57.747 1225.46 55.0866 1227.38 51.7219C1229.33 48.3573 1230.31 44.5622 1230.31 40.3368C1230.31 36.1114 1229.33 32.3946 1227.38 28.9908C1225.46 25.5479 1222.8 22.8875 1219.36 20.9704C1215.91 19.0533 1212.08 18.0752 1207.85 18.0752C1203.63 18.0752 1199.79 19.0533 1196.35 20.9704C1192.91 22.8875 1190.21 25.5479 1188.21 28.9908C1186.25 32.3946 1185.28 36.1505 1185.28 40.3368C1185.28 44.5231 1186.25 48.3573 1188.21 51.7219C1190.21 55.1257 1192.95 57.7862 1196.35 59.6641C1199.79 61.5812 1203.67 62.5593 1207.85 62.5593Z" fill="#3452A0"/>
<path d="M1336.58 40.3369H1342.02V60.7988C1339.51 62.9897 1336.58 64.7112 1333.13 65.8849C1329.69 67.0977 1326.09 67.6455 1322.37 67.6455C1316.97 67.6455 1312.16 66.4718 1307.86 64.0852C1303.55 61.7377 1300.19 58.4513 1297.76 54.3042C1295.34 50.157 1294.09 45.5013 1294.09 40.3369C1294.09 35.1725 1295.3 30.5558 1297.76 26.3696C1300.23 22.1833 1303.59 18.9751 1307.86 16.6277C1312.16 14.2802 1317.01 13.0674 1322.41 13.0674C1326.48 13.0674 1330.24 13.7325 1333.68 15.0236C1337.12 16.3538 1339.98 18.2709 1342.33 20.7748L1338.85 24.3742C1334.58 20.188 1329.22 18.0753 1322.69 18.0753C1318.3 18.0753 1314.39 19.0534 1310.87 20.9704C1307.39 22.8875 1304.65 25.548 1302.65 28.9909C1300.66 32.3947 1299.64 36.1506 1299.64 40.3369C1299.64 44.5232 1300.62 48.3573 1302.65 51.722C1304.65 55.0867 1307.39 57.708 1310.87 59.6642C1314.31 61.5813 1318.23 62.5594 1322.57 62.5594C1328.13 62.5594 1332.78 61.19 1336.58 58.4122V40.3369Z" fill="#3452A0"/>
<path d="M1428.72 13.5371V67.1762H1423.28V24.2571L1402.23 60.3686H1399.53L1378.48 24.4919V67.1762H1373.08V13.5371H1377.74L1401.02 53.3263L1424.1 13.5371H1428.76H1428.72Z" fill="#3452A0"/>
<path d="M1494.88 67.1762L1477.55 43.5844L1460.33 67.1762H1453.8L1474.18 39.6329L1455.13 13.5371H1461.62L1477.78 35.4466L1493.9 13.5371H1500L1480.95 39.4373L1501.41 67.1762H1494.88Z" fill="#3452A0"/>
<path d="M1536.94 18.4276H1518.08V13.5371H1561.43V18.4276H1542.57V67.1762H1536.94V18.4276Z" fill="#3452A0"/>
<path d="M1652.44 62.2854V67.1759H1614.84V63.2635L1637.14 41.4714C1639.96 38.6936 1641.88 36.307 1642.85 34.3117C1643.83 32.2773 1644.34 30.2428 1644.34 28.2083C1644.34 25.0784 1643.24 22.6136 1641.09 20.853C1638.9 19.0533 1635.81 18.1535 1631.78 18.1535C1625.48 18.1535 1620.59 20.1488 1617.15 24.1394L1613.27 20.7748C1615.35 18.3099 1618.01 16.4711 1621.22 15.1409C1624.46 13.8107 1628.14 13.1064 1632.25 13.1064C1637.73 13.1064 1642.03 14.3975 1645.24 16.9797C1648.45 19.5619 1650.01 23.0831 1650.01 27.5824C1650.01 30.3602 1649.39 33.0206 1648.17 35.6028C1646.96 38.1459 1644.61 41.041 1641.21 44.3666L1622.98 62.3245H1652.48L1652.44 62.2854Z" fill="#3452A0"/>
<path d="M1695.71 67.6455C1691.56 67.6455 1687.89 66.55 1684.64 64.3199C1681.39 62.129 1678.89 58.9599 1677.05 54.891C1675.25 50.783 1674.35 45.9316 1674.35 40.3369C1674.35 34.7421 1675.25 29.969 1677.05 25.8218C1678.89 21.7138 1681.43 18.5839 1684.64 16.3929C1687.89 14.202 1691.6 13.0674 1695.71 13.0674C1699.82 13.0674 1703.5 14.1629 1706.75 16.3929C1709.99 18.5839 1712.58 21.7138 1714.41 25.8218C1716.25 29.969 1717.15 34.7813 1717.15 40.3369C1717.15 45.8925 1716.25 50.783 1714.41 54.891C1712.58 58.9599 1710.03 62.129 1706.75 64.3199C1703.5 66.5109 1699.86 67.6455 1695.71 67.6455ZM1695.71 62.5594C1698.8 62.5594 1701.54 61.6986 1703.93 59.9772C1706.32 58.2166 1708.19 55.6735 1709.48 52.3871C1710.81 49.0615 1711.52 45.0318 1711.52 40.3369C1711.52 35.642 1710.85 31.6513 1709.48 28.3258C1708.15 25.0002 1706.32 22.4572 1703.93 20.7357C1701.54 18.9751 1698.8 18.1144 1695.71 18.1144C1692.62 18.1144 1689.84 19.0142 1687.46 20.7357C1685.07 22.4572 1683.23 25.0002 1681.9 28.3258C1680.57 31.6513 1679.94 35.642 1679.94 40.3369C1679.94 45.0318 1680.57 49.0615 1681.9 52.3871C1683.23 55.7126 1685.11 58.2166 1687.46 59.9772C1689.84 61.6986 1692.62 62.5594 1695.71 62.5594Z" fill="#3452A0"/>
<path d="M1776.7 62.2854V67.1759H1739.1V63.2635L1761.4 41.4714C1764.22 38.6936 1766.14 36.307 1767.12 34.3117C1768.09 32.2773 1768.6 30.2428 1768.6 28.2083C1768.6 25.0784 1767.51 22.6136 1765.36 20.853C1763.16 19.0533 1760.07 18.1535 1756.04 18.1535C1749.74 18.1535 1744.85 20.1488 1741.41 24.1394L1737.54 20.7748C1739.61 18.3099 1742.27 16.4711 1745.48 15.1409C1748.73 13.8107 1752.4 13.1064 1756.51 13.1064C1761.99 13.1064 1766.29 14.3975 1769.5 16.9797C1772.71 19.5619 1774.28 23.0831 1774.28 27.5824C1774.28 30.3602 1773.65 33.0206 1772.44 35.6028C1771.22 38.1459 1768.88 41.041 1765.47 44.3666L1747.24 62.3245H1776.74L1776.7 62.2854Z" fill="#3452A0"/>
<path d="M1812.7 35.5249C1820.45 35.5249 1826.12 36.9334 1829.64 39.7503C1833.2 42.5281 1834.96 46.4014 1834.96 51.3702C1834.96 54.5392 1834.22 57.317 1832.77 59.7427C1831.32 62.2075 1829.17 64.1246 1826.24 65.5722C1823.34 66.9807 1819.78 67.6458 1815.59 67.6458C1811.76 67.6458 1808.08 67.0198 1804.64 65.7287C1801.2 64.4767 1798.46 62.7944 1796.38 60.7208L1799 56.378C1800.8 58.2169 1803.15 59.7036 1806.05 60.8382C1808.98 61.9728 1812.11 62.5597 1815.48 62.5597C1819.9 62.5597 1823.34 61.5816 1825.77 59.5471C1828.23 57.5518 1829.44 54.8913 1829.44 51.6049C1829.44 47.9272 1828.07 45.1494 1825.34 43.2715C1822.6 41.3544 1817.98 40.3763 1811.49 40.3763H1800.1L1802.84 13.498H1832.18V18.3886H1807.69L1805.85 35.4858H1812.7V35.5249Z" fill="#3452A0"/>
<path d="M422.911 167.842H444.078C449.125 167.842 453.586 168.82 457.498 170.777C461.411 172.694 464.424 175.432 466.576 178.914C468.727 182.436 469.823 186.504 469.823 191.16C469.823 195.816 468.727 199.885 466.576 203.406C464.463 206.927 461.45 209.666 457.498 211.622C453.625 213.539 449.125 214.517 444.078 214.517H422.911V167.881V167.842ZM443.609 205.597C448.265 205.597 451.982 204.306 454.76 201.724C457.537 199.102 458.907 195.581 458.907 191.121C458.907 186.661 457.498 183.179 454.76 180.597C451.982 177.975 448.265 176.684 443.609 176.684H433.749V205.597H443.609Z" fill="#3452A0"/>
<path d="M490.95 167.842H501.788V214.478H490.95V167.842Z" fill="#3452A0"/>
<path d="M541.227 215.261C537.51 215.261 533.95 214.752 530.507 213.774C527.064 212.757 524.286 211.466 522.173 209.862L525.851 201.724C527.846 203.211 530.233 204.384 532.972 205.284C535.749 206.184 538.527 206.615 541.305 206.615C544.357 206.615 546.626 206.184 548.113 205.284C549.6 204.345 550.304 203.132 550.304 201.607C550.304 200.511 549.835 199.572 548.974 198.868C548.113 198.125 547.018 197.538 545.648 197.107C544.318 196.677 542.479 196.168 540.132 195.621C536.571 194.76 533.676 193.938 531.367 193.117C529.098 192.256 527.181 190.926 525.538 189.087C523.934 187.209 523.151 184.705 523.151 181.614C523.151 178.876 523.894 176.411 525.342 174.22C526.79 172.029 529.02 170.268 531.954 169.016C534.889 167.725 538.488 167.06 542.792 167.06C545.766 167.06 548.661 167.412 551.478 168.156C554.334 168.86 556.838 169.877 558.951 171.207L555.625 179.423C551.282 176.958 546.979 175.746 542.714 175.746C539.701 175.746 537.432 176.254 535.984 177.232C534.537 178.21 533.832 179.502 533.832 181.106C533.832 182.71 534.654 183.883 536.297 184.666C537.98 185.448 540.523 186.231 543.966 186.974C547.526 187.796 550.422 188.617 552.652 189.478C554.921 190.339 556.877 191.669 558.521 193.508C560.125 195.308 560.986 197.772 560.986 200.863C560.986 203.524 560.203 205.949 558.716 208.14C557.23 210.331 554.999 212.092 552.026 213.422C549.052 214.674 545.414 215.339 541.188 215.339L541.227 215.261Z" fill="#3452A0"/>
<path d="M592.247 176.528V188.852H613.805V197.537H592.247V214.478H581.409V167.842H616.662V176.528H592.247Z" fill="#3452A0"/>
<path d="M666.782 214.478L657.783 201.489H647.845V214.478H637.007V167.842H657.196C661.304 167.842 664.864 168.547 667.916 169.916C670.968 171.324 673.316 173.281 674.959 175.784C676.641 178.328 677.463 181.34 677.463 184.783C677.463 188.226 676.602 191.238 674.959 193.782C673.276 196.285 670.929 198.163 667.838 199.494L678.324 214.478H666.742H666.782ZM666.508 184.783C666.508 182.162 665.647 180.166 664.004 178.797C662.321 177.389 659.856 176.645 656.609 176.645H647.845V192.882H656.609C659.856 192.882 662.321 192.177 664.004 190.808C665.686 189.4 666.508 187.365 666.508 184.822V184.783Z" fill="#3452A0"/>
<path d="M719.758 215.261C713.067 215.261 707.864 213.422 704.147 209.744C700.469 206.027 698.63 200.785 698.63 193.938V167.803H709.389V193.508C709.389 201.88 712.833 206.067 719.797 206.067C723.123 206.067 725.705 205.088 727.466 203.054C729.265 201.02 730.165 197.851 730.165 193.508V167.803H740.886V193.938C740.886 200.746 739.008 206.027 735.33 209.744C731.613 213.422 726.409 215.261 719.797 215.261H719.758Z" fill="#3452A0"/>
<path d="M774.221 176.645H759.275V167.842H799.927V176.645H784.981V214.478H774.221V176.645Z" fill="#3452A0"/>
<path d="M854.859 205.832V214.478H818.746V167.842H853.998V176.528H829.427V186.622H851.103V194.994H829.427V205.832H854.82H854.859Z" fill="#3452A0"/>
<path d="M918.909 214.478L918.83 186.504L905.097 209.509H900.246L886.591 187.091V214.478H876.418V167.842H885.339L902.789 196.872L920.004 167.842H928.886L929.003 214.478H918.83H918.909Z" fill="#3452A0"/>
<path d="M975.719 215.261C970.907 215.261 966.524 214.204 962.612 212.131C958.738 210.057 955.687 207.162 953.496 203.484C951.305 199.807 950.17 195.699 950.17 191.121C950.17 186.543 951.265 182.475 953.496 178.797C955.687 175.119 958.738 172.263 962.612 170.151C966.524 168.038 970.907 166.981 975.719 166.981C980.532 166.981 984.914 168.038 988.748 170.151C992.621 172.224 995.673 175.119 997.864 178.797C1000.09 182.435 1001.23 186.543 1001.23 191.121C1001.23 195.699 1000.09 199.807 997.864 203.484C995.673 207.162 992.621 210.018 988.748 212.131C984.914 214.204 980.571 215.261 975.719 215.261ZM975.719 206.106C978.497 206.106 981.001 205.48 983.192 204.188C985.383 202.936 987.144 201.176 988.396 198.907C989.648 196.638 990.313 194.055 990.313 191.121C990.313 188.187 989.687 185.644 988.396 183.414C987.144 181.183 985.383 179.423 983.192 178.132C981.001 176.841 978.497 176.176 975.719 176.176C972.941 176.176 970.476 176.841 968.246 178.132C966.055 179.384 964.294 181.144 963.042 183.414C961.79 185.683 961.125 188.226 961.125 191.121C961.125 194.016 961.751 196.598 963.042 198.907C964.294 201.176 966.055 202.936 968.246 204.188C970.476 205.44 972.98 206.106 975.719 206.106Z" fill="#3452A0"/>
<path d="M1037.77 215.261C1034.06 215.261 1030.5 214.752 1027.05 213.774C1023.61 212.757 1020.83 211.466 1018.72 209.862L1022.4 201.724C1024.39 203.211 1026.78 204.384 1029.52 205.284C1032.3 206.184 1035.07 206.615 1037.85 206.615C1040.9 206.615 1043.17 206.184 1044.66 205.284C1046.15 204.345 1046.85 203.132 1046.85 201.607C1046.85 200.511 1046.38 199.572 1045.52 198.868C1044.66 198.125 1043.56 197.538 1042.19 197.107C1040.86 196.677 1039.03 196.168 1036.68 195.621C1033.12 194.76 1030.22 193.938 1027.91 193.117C1025.64 192.256 1023.73 190.926 1022.08 189.087C1020.48 187.209 1019.7 184.705 1019.7 181.614C1019.7 178.876 1020.44 176.411 1021.89 174.22C1023.34 172.029 1025.57 170.268 1028.5 169.016C1031.43 167.725 1035.03 167.06 1039.34 167.06C1042.31 167.06 1045.21 167.412 1048.02 168.156C1050.88 168.86 1053.38 169.877 1055.5 171.207L1052.17 179.423C1047.83 176.958 1043.52 175.746 1039.26 175.746C1036.25 175.746 1033.98 176.254 1032.53 177.232C1031.08 178.21 1030.38 179.502 1030.38 181.106C1030.38 182.71 1031.2 183.883 1032.84 184.666C1034.53 185.448 1037.07 186.231 1040.51 186.974C1044.07 187.796 1046.97 188.617 1049.2 189.478C1051.47 190.339 1053.42 191.669 1055.07 193.508C1056.67 195.308 1057.53 197.772 1057.53 200.863C1057.53 203.524 1056.75 205.949 1055.26 208.14C1053.78 210.331 1051.55 212.092 1048.57 213.422C1045.6 214.674 1041.96 215.339 1037.73 215.339L1037.77 215.261Z" fill="#3452A0"/>
<path d="M1118.45 215.261C1115.28 215.261 1112.35 214.674 1109.69 213.5C1107.06 212.326 1104.91 210.644 1103.27 208.492L1109.26 201.332C1111.8 204.736 1114.66 206.419 1117.9 206.419C1122.32 206.419 1124.51 203.836 1124.51 198.711V176.528H1108.12V167.842H1135.24V198.085C1135.24 203.836 1133.79 208.14 1130.93 210.996C1128.11 213.852 1123.97 215.3 1118.45 215.3V215.261Z" fill="#3452A0"/>
<path d="M1179.68 215.261C1172.99 215.261 1167.79 213.422 1164.07 209.744C1160.39 206.027 1158.55 200.785 1158.55 193.938V167.803H1169.31V193.508C1169.31 201.88 1172.76 206.067 1179.72 206.067C1183.05 206.067 1185.63 205.088 1187.39 203.054C1189.19 201.02 1190.09 197.851 1190.09 193.508V167.803H1200.81V193.938C1200.81 200.746 1198.93 206.027 1195.25 209.744C1191.54 213.422 1186.33 215.261 1179.72 215.261H1179.68Z" fill="#3452A0"/>
<path d="M1267.25 167.842V214.478H1258.36L1235.08 186.191V214.478H1224.44V167.842H1233.36L1256.56 196.207V167.842H1267.21H1267.25Z" fill="#3452A0"/>
<path d="M1300.97 176.645H1286.03V167.842H1326.68V176.645H1311.73V214.478H1300.97V176.645Z" fill="#3452A0"/>
<path d="M1368.11 215.261C1363.3 215.261 1358.92 214.204 1355 212.131C1351.13 210.057 1348.08 207.162 1345.89 203.484C1343.7 199.807 1342.56 195.699 1342.56 191.121C1342.56 186.543 1343.66 182.475 1345.89 178.797C1348.08 175.119 1351.13 172.263 1355 170.151C1358.92 168.038 1363.3 166.981 1368.11 166.981C1372.92 166.981 1377.31 168.038 1381.14 170.151C1385.01 172.224 1388.07 175.119 1390.26 178.797C1392.49 182.435 1393.62 186.543 1393.62 191.121C1393.62 195.699 1392.49 199.807 1390.26 203.484C1388.07 207.162 1385.01 210.018 1381.14 212.131C1377.31 214.204 1372.96 215.261 1368.11 215.261ZM1368.11 206.106C1370.89 206.106 1373.39 205.48 1375.58 204.188C1377.78 202.936 1379.54 201.176 1380.79 198.907C1382.04 196.638 1382.71 194.055 1382.71 191.121C1382.71 188.187 1382.08 185.644 1380.79 183.414C1379.54 181.183 1377.78 179.423 1375.58 178.132C1373.39 176.841 1370.89 176.176 1368.11 176.176C1365.33 176.176 1362.87 176.841 1360.64 178.132C1358.45 179.384 1356.69 181.144 1355.43 183.414C1354.18 185.683 1353.52 188.226 1353.52 191.121C1353.52 194.016 1354.14 196.598 1355.43 198.907C1356.69 201.176 1358.45 202.936 1360.64 204.188C1362.87 205.44 1365.37 206.106 1368.11 206.106Z" fill="#3452A0"/>
<path d="M1430.13 215.261C1426.41 215.261 1422.85 214.752 1419.41 213.774C1415.96 212.757 1413.19 211.466 1411.07 209.862L1414.75 201.724C1416.75 203.211 1419.13 204.384 1421.87 205.284C1424.65 206.184 1427.43 206.615 1430.2 206.615C1433.26 206.615 1435.53 206.184 1437.01 205.284C1438.5 204.345 1439.2 203.132 1439.2 201.607C1439.2 200.511 1438.73 199.572 1437.87 198.868C1437.01 198.125 1435.92 197.538 1434.55 197.107C1433.22 196.677 1431.38 196.168 1429.03 195.621C1425.47 194.76 1422.58 193.938 1420.27 193.117C1418 192.256 1416.08 190.926 1414.44 189.087C1412.83 187.209 1412.05 184.705 1412.05 181.614C1412.05 178.876 1412.79 176.411 1414.24 174.22C1415.69 172.029 1417.92 170.268 1420.85 169.016C1423.79 167.725 1427.39 167.06 1431.69 167.06C1434.67 167.06 1437.56 167.412 1440.38 168.156C1443.23 168.86 1445.74 169.877 1447.85 171.207L1444.52 179.423C1440.18 176.958 1435.88 175.746 1431.61 175.746C1428.6 175.746 1426.33 176.254 1424.88 177.232C1423.44 178.21 1422.73 179.502 1422.73 181.106C1422.73 182.71 1423.55 183.883 1425.2 184.666C1426.88 185.448 1429.42 186.231 1432.87 186.974C1436.43 187.796 1439.32 188.617 1441.55 189.478C1443.82 190.339 1445.78 191.669 1447.42 193.508C1449.02 195.308 1449.89 197.772 1449.89 200.863C1449.89 203.524 1449.1 205.949 1447.62 208.14C1446.13 210.331 1443.9 212.092 1440.93 213.422C1437.95 214.674 1434.31 215.339 1430.09 215.339L1430.13 215.261Z" fill="#3452A0"/>
<path d="M731.457 310.646H771.326C780.873 310.646 789.285 312.484 796.602 316.162C803.918 319.801 809.591 324.926 813.621 331.538C817.69 338.111 819.725 345.779 819.725 354.543C819.725 363.307 817.69 371.014 813.621 377.626C809.591 384.238 803.918 389.363 796.602 393.002C789.285 396.64 780.873 398.44 771.326 398.44H731.457V310.646ZM770.348 381.812C779.112 381.812 786.116 379.347 791.359 374.457C796.562 369.566 799.184 362.915 799.184 354.543C799.184 346.17 796.562 339.558 791.359 334.707C786.116 329.816 779.112 327.351 770.348 327.351H751.802V381.773H770.348V381.812Z" fill="#3452A0"/>
<path d="M859.594 310.646H879.939V398.44H859.594V310.646Z" fill="#3452A0"/>
<path d="M967.307 400.005C958.387 400.005 950.288 398.088 943.049 394.175C935.811 390.263 930.138 384.864 925.951 377.939C921.804 371.053 919.77 363.228 919.77 354.543C919.77 345.857 921.804 338.071 925.951 331.146C930.099 324.261 935.811 318.861 943.049 314.988C950.288 311.115 958.387 309.159 967.425 309.159C975.015 309.159 981.901 310.489 988.044 313.188C994.187 315.849 999.39 319.683 1003.54 324.691L990.509 336.702C984.601 329.855 977.206 326.412 968.403 326.412C962.964 326.412 958.113 327.625 953.848 330.012C949.583 332.398 946.297 335.724 943.91 339.988C941.523 344.253 940.35 349.065 940.35 354.504C940.35 359.942 941.523 364.793 943.91 369.058C946.258 373.322 949.583 376.648 953.848 379.034C958.152 381.421 963.004 382.595 968.403 382.595C977.206 382.595 984.601 379.152 990.509 372.188L1003.54 384.238C999.39 389.363 994.187 393.236 988.005 395.936C981.784 398.596 974.898 399.927 967.307 399.927V400.005Z" fill="#3452A0"/>
<path d="M1160.74 381.929V398.479H1094.43V385.333L1128.27 353.369C1131.87 349.926 1134.26 346.992 1135.51 344.566C1136.76 342.101 1137.43 339.636 1137.43 337.211C1137.43 333.689 1136.21 331.029 1133.83 329.112C1131.44 327.195 1128 326.217 1123.42 326.217C1119.55 326.217 1116.02 326.96 1112.93 328.408C1109.88 329.894 1107.3 332.085 1105.23 335.02L1090.4 325.473C1093.84 320.387 1098.53 316.397 1104.56 313.541C1110.59 310.645 1117.51 309.198 1125.26 309.198C1131.79 309.198 1137.5 310.254 1142.39 312.367C1147.29 314.479 1151.08 317.492 1153.78 321.444C1156.52 325.317 1157.89 329.894 1157.89 335.176C1157.89 339.91 1156.87 344.409 1154.88 348.596C1152.88 352.743 1148.97 357.516 1143.18 362.876L1123.03 381.969H1160.74V381.929Z" fill="#3452A0"/>
<path d="M1231.33 400.005C1224.05 400.005 1217.6 398.205 1211.92 394.606C1206.25 390.967 1201.79 385.764 1198.58 378.995C1195.33 372.188 1193.73 364.05 1193.73 354.582C1193.73 345.114 1195.33 337.054 1198.58 330.207C1201.79 323.4 1206.25 318.196 1211.92 314.597C1217.6 310.997 1224.05 309.198 1231.33 309.198C1238.61 309.198 1245.06 310.997 1250.73 314.597C1256.45 318.196 1260.91 323.4 1264.15 330.207C1267.36 337.015 1269.01 345.153 1269.01 354.582C1269.01 364.011 1267.4 372.188 1264.15 378.995C1260.91 385.764 1256.45 390.967 1250.73 394.606C1245.06 398.205 1238.57 400.005 1231.33 400.005ZM1231.33 382.79C1236.69 382.79 1240.88 380.521 1243.93 375.943C1246.98 371.327 1248.5 364.206 1248.5 354.582C1248.5 344.957 1246.98 337.915 1243.93 333.259C1240.88 328.642 1236.65 326.334 1231.33 326.334C1226.01 326.334 1221.9 328.642 1218.85 333.259C1215.83 337.876 1214.31 344.996 1214.31 354.582C1214.31 364.167 1215.8 371.327 1218.85 375.943C1221.9 380.521 1226.09 382.79 1231.33 382.79Z" fill="#3452A0"/>
<path d="M1369.01 381.929V398.479H1302.69V385.333L1336.54 353.369C1340.14 349.926 1342.52 346.992 1343.78 344.566C1345.03 342.101 1345.69 339.636 1345.69 337.211C1345.69 333.689 1344.48 331.029 1342.09 329.112C1339.71 327.195 1336.26 326.217 1331.69 326.217C1327.81 326.217 1324.29 326.96 1321.2 328.408C1318.15 329.894 1315.57 332.085 1313.49 335.02L1298.66 325.473C1302.11 320.387 1306.8 316.397 1312.83 313.541C1318.85 310.645 1325.78 309.198 1333.53 309.198C1340.06 309.198 1345.77 310.254 1350.66 312.367C1355.55 314.479 1359.35 317.492 1362.05 321.444C1364.79 325.317 1366.16 329.894 1366.16 335.176C1366.16 339.91 1365.14 344.409 1363.14 348.596C1361.15 352.743 1357.24 357.516 1351.44 362.876L1331.29 381.969H1369.01V381.929Z" fill="#3452A0"/>
<path d="M1432.04 343.666C1444.41 343.666 1453.52 346.131 1459.43 351.061C1465.34 355.99 1468.31 362.602 1468.31 370.818C1468.31 376.217 1466.98 381.108 1464.28 385.529C1461.62 389.911 1457.55 393.393 1452.12 396.053C1446.64 398.675 1439.87 399.966 1431.85 399.966C1425.67 399.966 1419.6 399.144 1413.62 397.501C1407.63 395.897 1402.58 393.549 1398.36 390.537L1406.46 375.005C1409.78 377.509 1413.58 379.426 1417.92 380.834C1422.3 382.243 1426.76 382.908 1431.38 382.908C1436.46 382.908 1440.46 381.93 1443.39 379.895C1446.32 377.9 1447.81 375.122 1447.81 371.523C1447.81 367.923 1446.29 364.95 1443.23 362.994C1440.22 361.037 1434.94 360.059 1427.43 360.059H1404.97L1409.51 310.646H1463.03V326.999H1426.41L1425.08 343.666H1432.2H1432.04Z" fill="#3452A0"/>
<path d="M469.001 310.293V398.087H448.655V326.647H431.088V310.293H469.001Z" fill="#3452A0"/>
<path d="M521.899 399.653C514.621 399.653 508.166 397.853 502.492 394.254C496.819 390.615 492.359 385.412 489.15 378.643C485.903 371.835 484.299 363.698 484.299 354.23C484.299 344.762 485.903 336.702 489.15 329.855C492.359 323.048 496.819 317.844 502.492 314.245C508.166 310.645 514.621 308.846 521.899 308.846C529.176 308.846 535.632 310.645 541.305 314.245C547.018 317.844 551.478 323.048 554.725 329.855C557.934 336.663 559.577 344.801 559.577 354.23C559.577 363.659 557.973 371.835 554.725 378.643C551.478 385.412 547.018 390.615 541.305 394.254C535.632 397.853 529.137 399.653 521.899 399.653ZM521.899 382.438C527.259 382.438 531.445 380.169 534.497 375.591C537.549 370.975 539.075 363.854 539.075 354.23C539.075 344.605 537.549 337.563 534.497 332.907C531.445 328.29 527.22 325.982 521.899 325.982C516.578 325.982 512.469 328.29 509.418 332.907C506.405 337.524 504.879 344.644 504.879 354.23C504.879 363.815 506.366 370.975 509.418 375.591C512.469 380.169 516.656 382.438 521.899 382.438Z" fill="#3452A0"/>
<path d="M481.56 484.669V542.299H475.613V489.951H462.036V484.669H481.56Z" fill="#3452A0"/>
<path d="M560.399 527.158H548.818V542.299H542.949V527.158H510.436V522.854L540.915 484.63H547.527L518.065 521.837H543.027V508.496H548.779V521.837H560.36V527.119L560.399 527.158Z" fill="#3452A0"/>
<path d="M586.339 507.596C585.126 507.596 584.148 507.165 583.287 506.305C582.426 505.405 581.996 504.348 581.996 503.057C581.996 501.766 582.426 500.749 583.287 499.888C584.148 499.028 585.165 498.597 586.339 498.597C587.513 498.597 588.608 499.028 589.469 499.888C590.369 500.749 590.799 501.805 590.799 503.057C590.799 504.309 590.33 505.405 589.469 506.305C588.608 507.165 587.552 507.596 586.339 507.596ZM586.339 542.69C585.126 542.69 584.148 542.26 583.287 541.399C582.426 540.499 581.996 539.443 581.996 538.152C581.996 536.861 582.426 535.843 583.287 534.983C584.148 534.122 585.165 533.691 586.339 533.691C587.513 533.691 588.608 534.122 589.469 534.983C590.369 535.843 590.799 536.9 590.799 538.152C590.799 539.404 590.33 540.499 589.469 541.399C588.608 542.26 587.552 542.69 586.339 542.69Z" fill="#3452A0"/>
<path d="M638.455 542.769C633.995 542.769 630.004 541.595 626.522 539.208C623.04 536.861 620.34 533.457 618.384 529.036C616.466 524.615 615.488 519.451 615.488 513.504C615.488 507.557 616.427 502.314 618.384 497.893C620.34 493.472 623.04 490.108 626.522 487.721C630.043 485.374 633.995 484.161 638.455 484.161C642.915 484.161 646.867 485.374 650.349 487.721C653.792 490.108 656.531 493.472 658.488 497.893C660.483 502.314 661.5 507.518 661.5 513.504C661.5 519.49 660.483 524.654 658.488 529.036C656.531 533.457 653.792 536.861 650.349 539.208C646.867 541.595 642.915 542.769 638.455 542.769ZM638.455 537.291C641.781 537.291 644.715 536.391 647.258 534.552C649.841 532.675 651.836 529.975 653.245 526.415C654.653 522.815 655.397 518.512 655.397 513.504C655.397 508.496 654.692 504.153 653.245 500.593C651.797 496.993 649.802 494.294 647.258 492.455C644.715 490.577 641.781 489.638 638.455 489.638C635.129 489.638 632.156 490.577 629.574 492.455C627.03 494.294 625.074 497.032 623.626 500.593C622.179 504.153 621.475 508.457 621.475 513.504C621.475 518.551 622.179 522.854 623.626 526.415C625.035 529.975 627.03 532.675 629.574 534.552C632.156 536.391 635.09 537.291 638.455 537.291Z" fill="#3452A0"/>
<path d="M709.077 542.769C704.617 542.769 700.626 541.595 697.144 539.208C693.662 536.861 690.962 533.457 689.006 529.036C687.089 524.615 686.11 519.451 686.11 513.504C686.11 507.557 687.049 502.314 689.006 497.893C690.962 493.472 693.662 490.108 697.144 487.721C700.665 485.374 704.617 484.161 709.077 484.161C713.538 484.161 717.489 485.374 720.971 487.721C724.415 490.108 727.153 493.472 729.11 497.893C731.105 502.314 732.122 507.518 732.122 513.504C732.122 519.49 731.105 524.654 729.11 529.036C727.153 533.457 724.415 536.861 720.971 539.208C717.489 541.595 713.538 542.769 709.077 542.769ZM709.077 537.291C712.403 537.291 715.337 536.391 717.88 534.552C720.463 532.675 722.458 529.975 723.867 526.415C725.275 522.815 726.019 518.512 726.019 513.504C726.019 508.496 725.314 504.153 723.867 500.593C722.419 496.993 720.424 494.294 717.88 492.455C715.337 490.577 712.403 489.638 709.077 489.638C705.751 489.638 702.778 490.577 700.196 492.455C697.652 494.294 695.696 497.032 694.249 500.593C692.801 504.153 692.097 508.457 692.097 513.504C692.097 518.551 692.801 522.854 694.249 526.415C695.657 529.975 697.652 532.675 700.196 534.552C702.778 536.391 705.712 537.291 709.077 537.291Z" fill="#3452A0"/>
<path d="M795.075 517.416H816.633V522.502H795.075V517.416Z" fill="#3452A0"/>
<path d="M918.987 537.017V542.299H878.57V538.074L902.554 514.638C905.528 511.704 907.562 509.161 908.619 506.97C909.714 504.818 910.262 502.627 910.262 500.436C910.262 497.072 909.088 494.411 906.78 492.533C904.471 490.616 901.107 489.638 896.725 489.638C889.995 489.638 884.752 491.79 881.035 496.054L876.81 492.455C879.04 489.794 881.896 487.76 885.378 486.352C888.899 484.943 892.851 484.2 897.272 484.2C903.102 484.2 907.758 485.608 911.162 488.347C914.605 491.125 916.287 494.92 916.287 499.732C916.287 502.705 915.622 505.561 914.331 508.3C913.001 511.039 910.536 514.169 906.858 517.729L887.256 537.017H918.909H918.987Z" fill="#3452A0"/>
<path d="M981.862 537.017V542.299H941.445V538.074L965.429 514.638C968.403 511.704 970.437 509.161 971.494 506.97C972.589 504.818 973.137 502.627 973.137 500.436C973.137 497.072 971.963 494.411 969.655 492.533C967.347 490.616 963.982 489.638 959.6 489.638C952.87 489.638 947.627 491.79 943.91 496.054L939.685 492.455C941.915 489.794 944.771 487.76 948.253 486.352C951.774 484.943 955.726 484.2 960.147 484.2C965.977 484.2 970.633 485.608 974.037 488.347C977.48 491.125 979.162 494.92 979.162 499.732C979.162 502.705 978.497 505.561 977.206 508.3C975.876 511.039 973.411 514.169 969.733 517.729L950.131 537.017H981.784H981.862Z" fill="#3452A0"/>
<path d="M1009.8 507.596C1008.59 507.596 1007.61 507.165 1006.75 506.305C1005.89 505.405 1005.46 504.348 1005.46 503.057C1005.46 501.766 1005.89 500.749 1006.75 499.888C1007.61 499.028 1008.62 498.597 1009.8 498.597C1010.97 498.597 1012.07 499.028 1012.93 499.888C1013.83 500.749 1014.26 501.805 1014.26 503.057C1014.26 504.309 1013.79 505.405 1012.93 506.305C1012.07 507.165 1011.01 507.596 1009.8 507.596ZM1009.8 542.69C1008.59 542.69 1007.61 542.26 1006.75 541.399C1005.89 540.499 1005.46 539.443 1005.46 538.152C1005.46 536.861 1005.89 535.843 1006.75 534.983C1007.61 534.122 1008.62 533.691 1009.8 533.691C1010.97 533.691 1012.07 534.122 1012.93 534.983C1013.83 535.843 1014.26 536.9 1014.26 538.152C1014.26 539.404 1013.79 540.499 1012.93 541.399C1012.07 542.26 1011.01 542.69 1009.8 542.69Z" fill="#3452A0"/>
<path d="M1061.95 542.769C1057.49 542.769 1053.5 541.595 1050.02 539.208C1046.54 536.861 1043.84 533.457 1041.88 529.036C1039.96 524.615 1038.99 519.451 1038.99 513.504C1038.99 507.557 1039.92 502.314 1041.88 497.893C1043.84 493.472 1046.54 490.108 1050.02 487.721C1053.54 485.374 1057.49 484.161 1061.95 484.161C1066.41 484.161 1070.36 485.374 1073.85 487.721C1077.29 490.108 1080.03 493.472 1081.98 497.893C1083.98 502.314 1085 507.518 1085 513.504C1085 519.49 1083.98 524.654 1081.98 529.036C1080.03 533.457 1077.29 536.861 1073.85 539.208C1070.36 541.595 1066.41 542.769 1061.95 542.769ZM1061.95 537.291C1065.28 537.291 1068.21 536.391 1070.76 534.552C1073.34 532.675 1075.33 529.975 1076.74 526.415C1078.15 522.815 1078.89 518.512 1078.89 513.504C1078.89 508.496 1078.19 504.153 1076.74 500.593C1075.29 496.993 1073.3 494.294 1070.76 492.455C1068.21 490.577 1065.28 489.638 1061.95 489.638C1058.63 489.638 1055.65 490.577 1053.07 492.455C1050.53 494.294 1048.57 497.032 1047.12 500.593C1045.68 504.153 1044.97 508.457 1044.97 513.504C1044.97 518.551 1045.68 522.854 1047.12 526.415C1048.53 529.975 1050.53 532.675 1053.07 534.552C1055.65 536.391 1058.59 537.291 1061.95 537.291Z" fill="#3452A0"/>
<path d="M1132.54 542.769C1128.07 542.769 1124.08 541.595 1120.6 539.208C1117.12 536.861 1114.42 533.457 1112.46 529.036C1110.55 524.615 1109.57 519.451 1109.57 513.504C1109.57 507.557 1110.51 502.314 1112.46 497.893C1114.42 493.472 1117.12 490.108 1120.6 487.721C1124.12 485.374 1128.07 484.161 1132.54 484.161C1137 484.161 1140.95 485.374 1144.43 487.721C1147.87 490.108 1150.61 493.472 1152.57 497.893C1154.56 502.314 1155.58 507.518 1155.58 513.504C1155.58 519.49 1154.56 524.654 1152.57 529.036C1150.61 533.457 1147.87 536.861 1144.43 539.208C1140.95 541.595 1137 542.769 1132.54 542.769ZM1132.54 537.291C1135.86 537.291 1138.8 536.391 1141.34 534.552C1143.92 532.675 1145.92 529.975 1147.32 526.415C1148.73 522.815 1149.48 518.512 1149.48 513.504C1149.48 508.496 1148.77 504.153 1147.32 500.593C1145.88 496.993 1143.88 494.294 1141.34 492.455C1138.8 490.577 1135.86 489.638 1132.54 489.638C1129.21 489.638 1126.24 490.577 1123.65 492.455C1121.11 494.294 1119.15 497.032 1117.71 500.593C1116.26 504.153 1115.55 508.457 1115.55 513.504C1115.55 518.551 1116.26 522.854 1117.71 526.415C1119.12 529.975 1121.11 532.675 1123.65 534.552C1126.24 536.391 1129.17 537.291 1132.54 537.291Z" fill="#3452A0"/>
<path d="M1271.08 484.669V542.299H1265.09V515.734H1229.1V542.299H1222.99V484.669H1229.1V510.373H1265.09V484.669H1271.08Z" fill="#3452A0"/>
<path d="M1345.38 542.26L1332.23 523.754C1330.71 523.911 1329.18 523.989 1327.58 523.989H1312.16V542.221H1306.06V484.591H1327.62C1334.97 484.591 1340.72 486.351 1344.87 489.873C1349.06 493.394 1351.17 498.245 1351.17 504.388C1351.17 508.887 1350.04 512.682 1347.73 515.773C1345.42 518.864 1342.17 521.094 1337.99 522.463L1352.07 542.221H1345.38V542.26ZM1327.42 518.824C1333.09 518.824 1337.44 517.572 1340.45 515.029C1343.46 512.486 1344.99 508.965 1344.99 504.427C1344.99 499.888 1343.46 496.211 1340.45 493.707C1337.44 491.164 1333.06 489.912 1327.42 489.912H1312.12V518.824H1327.42Z" fill="#3452A0"/>
<path d="M1397.53 542.769C1393.23 542.769 1389.16 542.104 1385.21 540.734C1381.3 539.365 1378.25 537.526 1376.09 535.296L1378.48 530.562C1380.55 532.635 1383.33 534.357 1386.81 535.648C1390.26 536.9 1393.86 537.565 1397.53 537.565C1402.66 537.565 1406.53 536.626 1409.12 534.748C1411.7 532.87 1412.99 530.445 1412.99 527.393C1412.99 525.085 1412.29 523.246 1410.92 521.876C1409.51 520.507 1407.82 519.412 1405.79 518.707C1403.76 517.964 1400.94 517.142 1397.34 516.242C1392.96 515.147 1389.51 514.091 1386.93 513.113C1384.35 512.095 1382.16 510.53 1380.32 508.457C1378.48 506.383 1377.58 503.527 1377.58 499.928C1377.58 497.033 1378.32 494.411 1379.85 492.025C1381.41 489.638 1383.76 487.721 1386.97 486.273C1390.14 484.865 1394.09 484.122 1398.86 484.122C1402.11 484.122 1405.32 484.591 1408.49 485.452C1411.66 486.352 1414.4 487.604 1416.71 489.169L1414.67 494.059C1412.25 492.455 1409.66 491.281 1406.89 490.499C1404.15 489.677 1401.49 489.286 1398.86 489.286C1393.82 489.286 1389.98 490.264 1387.4 492.22C1384.86 494.137 1383.61 496.641 1383.61 499.693C1383.61 502.001 1384.31 503.879 1385.68 505.249C1387.09 506.657 1388.85 507.713 1390.96 508.496C1393.07 509.239 1395.93 510.022 1399.53 510.882C1403.72 511.939 1407.12 512.995 1409.74 514.012C1412.36 515.03 1414.55 516.555 1416.35 518.59C1418.15 520.624 1419.05 523.402 1419.05 526.923C1419.05 529.858 1418.27 532.557 1416.75 534.944C1415.18 537.33 1412.79 539.208 1409.51 540.578C1406.26 541.986 1402.31 542.651 1397.61 542.651L1397.53 542.769Z" fill="#3452A0"/>
<path d="M286.558 660.61H267.699L264.139 669.296H254.475L272.59 628.763H281.824L299.939 669.296H290.079L286.519 660.61H286.558ZM283.584 653.529L277.168 637.996L270.751 653.529H283.623H283.584Z" fill="#3452A0"/>
<path d="M315.55 628.802H324.901V661.666H345.246V669.335H315.55V628.802Z" fill="#3452A0"/>
<path d="M391.611 648.247C393.919 648.99 395.758 650.203 397.049 651.925C398.34 653.646 399.005 655.759 399.005 658.224C399.005 661.784 397.597 664.523 394.858 666.44C392.119 668.357 388.089 669.335 382.807 669.335H361.875V628.802H381.634C386.563 628.802 390.359 629.78 393.019 631.697C395.68 633.575 397.01 636.118 397.01 639.366C397.01 641.322 396.501 643.083 395.523 644.648C394.584 646.212 393.254 647.425 391.611 648.325V648.247ZM371.148 635.805V645.352H380.46C382.768 645.352 384.529 644.96 385.742 644.178C386.955 643.356 387.581 642.144 387.581 640.579C387.581 639.014 386.955 637.801 385.742 637.018C384.529 636.197 382.807 635.805 380.46 635.805H371.148ZM382.103 662.292C384.568 662.292 386.407 661.901 387.659 661.08C388.911 660.258 389.576 659.006 389.576 657.285C389.576 653.959 387.072 652.277 382.103 652.277H371.148V662.332H382.103V662.292Z" fill="#3452A0"/>
<path d="M437.035 670C432.809 670 429.014 669.1 425.649 667.3C422.284 665.462 419.663 662.958 417.746 659.789C415.829 656.62 414.851 653.02 414.851 649.069C414.851 645.117 415.79 641.479 417.746 638.31C419.663 635.14 422.284 632.637 425.649 630.837C429.014 628.998 432.809 628.098 437.035 628.098C441.26 628.098 445.017 628.998 448.381 630.837C451.746 632.637 454.407 635.14 456.324 638.31C458.28 641.479 459.258 645.078 459.258 649.069C459.258 653.059 458.28 656.581 456.324 659.789C454.407 662.958 451.746 665.501 448.381 667.3C445.017 669.1 441.26 670 437.035 670ZM437.035 662.019C439.422 662.019 441.613 661.471 443.53 660.376C445.447 659.28 446.973 657.754 448.068 655.798C449.164 653.803 449.712 651.573 449.712 649.069C449.712 646.565 449.164 644.296 448.068 642.339C446.973 640.383 445.447 638.857 443.53 637.762C441.613 636.666 439.461 636.119 437.035 636.119C434.609 636.119 432.496 636.666 430.54 637.762C428.623 638.857 427.097 640.383 426.001 642.339C424.906 644.296 424.358 646.565 424.358 649.069C424.358 651.573 424.906 653.803 426.001 655.798C427.097 657.754 428.623 659.28 430.54 660.376C432.496 661.471 434.648 662.019 437.035 662.019Z" fill="#3452A0"/>
<path d="M504.331 660.61H485.473L481.912 669.296H472.248L490.363 628.763H499.597L517.712 669.296H507.853L504.292 660.61H504.331ZM501.319 653.529L494.902 637.996L488.485 653.529H501.358H501.319Z" fill="#3452A0"/>
<path d="M561.024 628.802H570.375V661.666H590.721V669.335H561.024V628.802Z" fill="#3452A0"/>
<path d="M634.033 660.61H615.175L611.614 669.296H601.95L620.065 628.763H629.299L647.414 669.296H637.555L633.994 660.61H634.033ZM631.021 653.529L624.604 637.996L618.187 653.529H631.06H631.021Z" fill="#3452A0"/>
<path d="M700.156 628.802V669.335H692.448L672.259 644.726V669.335H663.025V628.802H670.733L690.883 653.411V628.802H700.195H700.156Z" fill="#3452A0"/>
<path d="M721.128 628.802H739.478C743.899 628.802 747.773 629.663 751.177 631.306C754.541 632.989 757.202 635.336 759.08 638.427C760.958 641.478 761.897 645.039 761.897 649.068C761.897 653.098 760.958 656.659 759.08 659.71C757.202 662.762 754.581 665.149 751.177 666.831C747.773 668.513 743.899 669.335 739.478 669.335H721.128V628.802ZM739.048 661.588C743.078 661.588 746.286 660.454 748.712 658.224C751.098 655.994 752.311 652.942 752.311 649.029C752.311 645.117 751.098 642.104 748.712 639.835C746.286 637.605 743.078 636.471 739.048 636.471H730.479V661.588H739.048Z" fill="#3452A0"/>
<path d="M817.104 669.335L817.025 645.039L805.092 665.07H800.866L788.972 645.547V669.374H780.208V628.841H787.916L803.097 653.998L818.043 628.841H825.75L825.868 669.374H817.065L817.104 669.335Z" fill="#3452A0"/>
<path d="M873.562 660.61H854.703L851.143 669.296H841.479L859.594 628.763H868.827L886.943 669.296H877.083L873.522 660.61H873.562ZM870.549 653.529L864.132 637.996L857.716 653.529H870.588H870.549Z" fill="#3452A0"/>
<path d="M928.299 669.335L920.513 658.067H911.866V669.335H902.515V628.802H920.043C923.643 628.802 926.733 629.389 929.394 630.563C932.055 631.776 934.089 633.458 935.498 635.649C936.906 637.84 937.65 640.461 937.65 643.474C937.65 646.486 936.906 649.108 935.459 651.299C934.011 653.49 931.976 655.133 929.355 656.267L938.432 669.296H928.338L928.299 669.335ZM928.181 643.474C928.181 641.205 927.438 639.444 925.99 638.27C924.503 637.057 922.391 636.431 919.573 636.431H911.905V650.516H919.573C922.391 650.516 924.542 649.89 925.99 648.677C927.438 647.464 928.181 645.704 928.181 643.474Z" fill="#3452A0"/>
<path d="M971.18 653.411L965.742 659.123V669.335H956.43V628.802H965.742V647.738L983.7 628.802H994.108L977.323 646.878L995.086 669.335H984.17L971.18 653.411Z" fill="#3452A0"/>
<path d="M1033.47 650.203H1062.42V655.837H1033.47V650.203Z" fill="#3452A0"/>
<path d="M1133.67 648.364H1142.24V664.836C1140.05 666.518 1137.46 667.809 1134.57 668.709C1131.67 669.57 1128.74 670 1125.81 670C1121.58 670 1117.82 669.1 1114.46 667.3C1111.09 665.501 1108.47 662.997 1106.56 659.828C1104.64 656.659 1103.66 653.059 1103.66 649.069C1103.66 645.078 1104.6 641.479 1106.56 638.31C1108.47 635.101 1111.13 632.597 1114.5 630.798C1117.86 628.998 1121.7 628.098 1125.96 628.098C1129.52 628.098 1132.73 628.724 1135.63 629.937C1138.52 631.15 1140.95 632.871 1142.9 635.14L1136.92 640.696C1134.02 637.644 1130.5 636.119 1126.43 636.119C1123.81 636.119 1121.5 636.666 1119.51 637.762C1117.51 638.818 1115.91 640.344 1114.77 642.3C1113.68 644.256 1113.13 646.526 1113.13 649.108C1113.13 651.69 1113.68 653.842 1114.77 655.837C1115.91 657.793 1117.47 659.319 1119.43 660.415C1121.42 661.51 1123.73 662.058 1126.27 662.058C1128.82 662.058 1131.4 661.471 1133.55 660.297V648.404L1133.67 648.364Z" fill="#3452A0"/>
<path d="M1180.27 670C1174.48 670 1169.94 668.396 1166.73 665.227C1163.48 662.019 1161.88 657.441 1161.88 651.494V628.763H1171.23V651.103C1171.23 658.38 1174.24 662.019 1180.31 662.019C1183.24 662.019 1185.47 661.158 1187 659.397C1188.56 657.637 1189.31 654.898 1189.31 651.142V628.802H1198.62V651.533C1198.62 657.441 1197.01 662.019 1193.77 665.266C1190.52 668.435 1186.02 670.039 1180.23 670.039L1180.27 670Z" fill="#3452A0"/>
<path d="M1245.92 660.61H1227.06L1223.5 669.296H1213.84L1231.95 628.763H1241.19L1259.3 669.296H1249.44L1245.88 660.61H1245.92ZM1242.91 653.529L1236.49 637.996L1230.08 653.529H1242.95H1242.91Z" fill="#3452A0"/>
<path d="M1274.88 628.802H1293.23C1297.65 628.802 1301.52 629.663 1304.92 631.306C1308.29 632.989 1310.95 635.336 1312.83 638.427C1314.71 641.478 1315.64 645.039 1315.64 649.068C1315.64 653.098 1314.71 656.659 1312.83 659.71C1310.95 662.762 1308.33 665.149 1304.92 666.831C1301.52 668.513 1297.65 669.335 1293.23 669.335H1274.88V628.802ZM1292.83 661.588C1296.86 661.588 1300.07 660.454 1302.5 658.224C1304.88 655.994 1306.1 652.942 1306.1 649.029C1306.1 645.117 1304.88 642.104 1302.5 639.835C1300.07 637.605 1296.86 636.471 1292.83 636.471H1284.27V661.588H1292.83Z" fill="#3452A0"/>
<path d="M1360.72 660.61H1341.86L1338.3 669.296H1328.63L1346.75 628.763H1355.98L1374.1 669.296H1364.24L1360.68 660.61H1360.72ZM1357.74 653.529L1351.33 637.996L1344.91 653.529H1357.78H1357.74Z" fill="#3452A0"/>
<path d="M1389.71 628.802H1399.06V661.666H1419.41V669.335H1389.71V628.802Z" fill="#3452A0"/>
<path d="M1462.68 660.61H1443.82L1440.26 669.296H1430.6L1448.71 628.763H1457.94L1476.06 669.296H1466.2L1462.64 660.61H1462.68ZM1459.71 653.529L1453.29 637.996L1446.87 653.529H1459.74H1459.71Z" fill="#3452A0"/>
<path d="M1499.14 670C1496.37 670 1493.82 669.491 1491.55 668.474C1489.25 667.457 1487.41 666.009 1485.92 664.131L1491.12 657.871C1493.31 660.845 1495.86 662.332 1498.64 662.332C1502.47 662.332 1504.39 660.102 1504.39 655.602V636.314H1490.11V628.802H1513.7V655.054C1513.7 660.062 1512.45 663.779 1509.98 666.244C1507.52 668.748 1503.92 669.961 1499.14 669.961V670Z" fill="#3452A0"/>
<path d="M1561 660.61H1542.14L1538.58 669.296H1528.92L1547.03 628.763H1556.27L1574.38 669.296H1564.52L1560.96 660.61H1561ZM1558.03 653.529L1551.61 637.996L1545.2 653.529H1558.07H1558.03Z" fill="#3452A0"/>
<path d="M1615.78 669.335L1607.99 658.067H1599.35V669.335H1589.99V628.802H1607.52C1611.12 628.802 1614.21 629.389 1616.87 630.563C1619.53 631.776 1621.57 633.458 1622.98 635.649C1624.39 637.84 1625.13 640.461 1625.13 643.474C1625.13 646.486 1624.39 649.108 1622.94 651.299C1621.49 653.49 1619.46 655.133 1616.83 656.267L1625.91 669.296H1615.82L1615.78 669.335ZM1615.66 643.474C1615.66 641.205 1614.92 639.444 1613.47 638.27C1611.98 637.057 1609.87 636.431 1607.05 636.431H1599.38V650.516H1607.05C1609.87 650.516 1612.02 649.89 1613.47 648.677C1614.92 647.464 1615.66 645.704 1615.66 643.474Z" fill="#3452A0"/>
<path d="M1670.55 660.61H1651.7L1648.13 669.296H1638.47L1656.59 628.763H1665.82L1683.93 669.296H1674.08L1670.51 660.61H1670.55ZM1667.58 653.529L1661.16 637.996L1654.75 653.529H1667.62H1667.58Z" fill="#3452A0"/>
</g>
<defs>
<clipPath id="clip0_650_4000">
<rect width="1835" height="670" fill="white"/>
</clipPath>
</defs>
</svg>
