<svg width="2850" height="476" viewBox="0 0 2850 476" fill="none" xmlns="http://www.w3.org/2000/svg">
<g clip-path="url(#clip0_650_3948)">
<mask id="mask0_650_3948" style="mask-type:luminance" maskUnits="userSpaceOnUse" x="0" y="25" width="476" height="450">
<path d="M475.349 25.7737H0V474.421H475.349V25.7737Z" fill="white"/>
</mask>
<g mask="url(#mask0_650_3948)">
<path d="M0 0H474.837V473.91H0V0Z" fill="#B3D7ED"/>
</g>
<path d="M419.606 243.48C432.169 233.542 438.823 216.963 435.706 199.92C435.473 198.759 435.24 197.784 435.008 196.623C431.471 179.812 418.908 167.041 403.228 162.815C410.114 148.373 409.184 130.401 398.714 116.655C398.016 115.726 397.272 114.983 396.807 114.054C386.384 100.355 369.308 94.4105 353.394 97.2433C353.394 81.1754 344.647 65.5254 329.478 57.7237C328.547 57.2593 327.57 56.7949 326.407 56.0518C311.006 48.2501 293.231 50.3863 280.156 59.6277C273.037 45.1851 258.567 35.015 241.304 34.3184H237.023C219.714 34.0862 204.778 43.5597 196.961 57.7701C184.398 47.8321 166.624 44.9994 150.757 52.1045C149.826 52.5689 148.616 53.0333 147.639 53.5441C132.005 60.8815 122.513 76.0206 121.815 92.135C106.181 88.6056 89.1048 93.8068 77.9842 106.81C77.2862 107.738 76.5417 108.482 75.8438 109.41C64.9093 122.645 63.0481 140.385 69.19 155.292C53.556 158.821 40.2485 170.896 36.0142 187.706C35.7816 188.867 35.5489 189.843 35.3163 191.05C31.2682 207.861 37.224 224.626 49.2752 235.307C36.7122 245.477 30.0584 261.777 33.362 278.82C33.5947 279.981 33.8273 280.956 34.06 282.117C37.6428 298.928 50.4385 311.699 65.8399 315.971C58.9535 330.414 60.1632 348.153 70.3533 362.085C71.0512 363.014 71.7957 363.757 72.4936 364.686C82.9163 378.432 99.9928 384.329 115.859 381.497C115.859 397.611 124.654 412.982 140.055 421.016C140.986 421.481 141.963 421.945 143.126 422.456C158.527 430.258 176.302 428.121 189.609 418.694C196.728 433.137 211.199 443.307 228.462 443.771H232.742C249.586 443.771 264.522 434.298 272.107 420.366C284.67 430.304 302.444 433.137 318.078 426.264C319.241 425.799 320.219 425.335 321.382 424.824C337.016 417.487 346.275 402.58 347.252 386.512C362.886 390.041 379.963 385.072 391.363 371.837C392.061 370.908 392.805 370.165 393.503 369.237C404.391 356.002 406.578 338.262 400.157 323.308C415.791 319.779 429.098 307.705 433.565 291.126C433.798 289.965 434.031 288.99 434.496 287.829C437.613 271.018 431.658 254.254 419.56 243.573L419.606 243.48ZM234.464 341.188C177.791 341.188 132.052 295.538 132.052 238.975C132.052 182.412 177.791 136.763 234.464 136.763C291.137 136.763 336.876 182.459 336.876 238.975C336.876 295.491 291.091 341.188 234.464 341.188Z" fill="#FFFAEF"/>
<path d="M173.556 86.6087L193.006 76.6708L190.866 98.4507L200.823 117.816L179 115.68L159.551 125.617L161.691 103.838L151.734 84.4261L173.556 86.5623V86.6087ZM73.4707 264.052L83.4281 283.464L81.2877 305.244L100.737 295.306L122.56 297.442L112.602 278.03L114.743 256.25L95.2932 266.188L73.4707 264.052ZM339.947 282.256L349.905 301.668L347.764 323.448L367.214 313.51L389.036 315.646L379.079 296.234L381.219 274.455L361.77 284.393L339.947 282.256ZM328.361 99.3794L326.686 91.3455L306.539 95.3393L314.821 76.6243L307.237 73.3271L298.443 93.4353L283.739 77.1352L277.551 82.5685L291.789 98.172L270.943 102.444L272.618 110.478L292.766 106.438L284.484 125.153L292.068 128.45L300.862 108.342L315.566 124.642L321.707 119.209L307.469 103.605L328.315 99.333L328.361 99.3794Z" fill="#3452A0"/>
<path d="M129.678 174.378C129.678 189.053 117.813 200.895 103.11 200.895C88.4065 200.895 76.5879 189.053 76.5879 174.378C76.5879 159.704 88.453 147.862 103.11 147.862C117.767 147.862 129.678 159.704 129.678 174.378ZM277.132 349.732C262.428 349.732 250.563 361.574 250.563 376.249C250.563 390.924 262.428 402.719 277.132 402.719C291.835 402.719 303.7 390.877 303.7 376.249C303.7 361.621 291.835 349.732 277.132 349.732ZM370.331 160.679C355.627 160.679 343.762 172.521 343.762 187.149C343.762 201.778 355.627 213.666 370.331 213.666C385.034 213.666 396.899 201.824 396.899 187.149C396.899 172.474 385.034 160.679 370.331 160.679ZM191.098 369.84L189.423 361.806L169.275 365.847L177.558 347.132L169.973 343.788L161.179 363.896L146.476 347.596L140.334 353.029L154.572 368.633L133.727 372.905L135.402 380.939L155.549 376.946L147.267 395.614L154.851 398.958L163.645 378.85L178.349 395.15L184.537 389.716L170.299 374.113L191.144 369.84H191.098Z" fill="#3452A0"/>
<mask id="mask1_650_3948" style="mask-type:luminance" maskUnits="userSpaceOnUse" x="1422" y="25" width="477" height="450">
<path d="M1898.05 25.7737H1422.7V474.421H1898.05V25.7737Z" fill="white"/>
</mask>
<g mask="url(#mask1_650_3948)">
<path d="M1422.7 0H1899.63V476H1422.7V0Z" fill="#B3D7ED"/>
</g>
<path d="M1809.59 151.531C1857.33 233.217 1829.65 338.308 1747.75 385.955C1665.91 433.601 1560.61 405.97 1512.87 324.237C1465.13 242.551 1492.82 137.46 1574.71 89.8132C1656.56 42.1667 1761.85 69.798 1809.59 151.531Z" fill="#3452A0"/>
<path d="M1661.12 238.464L1588.58 393.339C1572.1 385.723 1556.61 375.227 1542.74 362.132L1537.25 356.652C1523.9 342.813 1513.62 327.349 1505.75 311.142L1660.42 238.232L1660.88 238.464H1661.12ZM1661.35 237.768L1661.58 238L1816.48 164.859C1808.1 147.49 1796.89 130.772 1782.61 116.516C1768.04 101.98 1751.57 91.0206 1733.89 82.708L1661.3 237.814L1661.35 237.768ZM1661.63 237.536L1661.4 237.768V238L1661.63 237.489V237.536ZM1660.88 237.768L1661.12 237.304L1588.06 82.9402C1573.27 89.8596 1559.17 99.1474 1546.28 110.571L1533.16 123.946C1521.71 136.809 1512.41 150.834 1505.47 165.602L1660.37 238.047L1660.84 237.814L1660.88 237.768ZM1660.88 237.768L1660.42 238L1660.88 238.232V237.721V237.768ZM1661.35 238V237.768H1661.12L1661.35 238ZM1661.86 238.697L1661.35 238.464L1734.63 393.06C1752.04 384.701 1768.79 373.509 1783.07 359.252C1797.36 344.996 1808.62 328.278 1816.94 310.631L1661.77 238.232V238.697H1661.86ZM1661.35 238L1661.12 238.232L1661.63 238.464L1661.4 238H1661.35Z" fill="#FFFAEF"/>
<mask id="mask2_650_3948" style="mask-type:luminance" maskUnits="userSpaceOnUse" x="950" y="25" width="477" height="450">
<path d="M1426.14 25.7737H950.791V474.421H1426.14V25.7737Z" fill="white"/>
</mask>
<g mask="url(#mask2_650_3948)">
<path d="M950.791 0H1425.63V473.91H950.791V0Z" fill="#FFFAEF"/>
</g>
<path d="M1171.85 149.209C1171.85 195.926 1133.84 233.913 1086.98 233.913C1040.13 233.913 1002.11 195.973 1002.11 149.209C1002.11 102.445 1040.13 64.5039 1086.98 64.5039C1133.84 64.5039 1171.85 102.445 1171.85 149.209ZM1303.25 239.811H1247.88V263.774H1303.25V239.811Z" fill="#3452A0"/>
<path d="M1165.2 116.934H1008.35C1011.47 109.364 1015.7 102.212 1020.96 96.0824H1152.87C1157.85 102.259 1162.13 109.364 1165.25 116.934H1165.2ZM1171.85 149.209C1171.85 145.633 1171.62 142.104 1171.16 138.76H1002.63C1002.16 142.289 1001.93 145.633 1001.93 149.209C1001.93 152.784 1002.16 156.314 1002.63 159.657H1171.16C1171.39 156.36 1171.85 152.784 1171.85 149.209ZM1165.2 181.716H1008.35C1011.47 189.286 1015.7 196.437 1020.96 202.567H1152.87C1157.85 196.391 1162.13 189.286 1165.25 181.716H1165.2ZM1114.53 44.3494H1059.16V68.3119H1114.53V44.3494ZM1275.71 259.966C1228.9 259.966 1190.84 297.906 1190.84 344.671C1190.84 391.435 1228.85 429.375 1275.71 429.375C1322.57 429.375 1360.58 391.435 1360.58 344.671C1360.58 297.906 1322.57 259.966 1275.71 259.966Z" fill="#B3D7ED"/>
<path d="M1349.6 173.403L1374.54 181.716L1349.6 189.75L1341.27 214.641L1332.94 189.75L1308 181.484L1332.94 173.171L1341.27 148.28L1349.6 173.403ZM1260.96 52.4297L1246.91 94.4106L1204.84 108.389L1246.91 122.413L1260.96 164.394L1274.96 122.413L1317.03 108.389L1274.96 94.4106L1260.96 52.4297ZM1101.73 278.727L1086.75 323.309L1042.08 338.262L1086.75 353.215L1101.73 397.797L1116.72 353.215L1161.39 338.262L1116.72 323.309L1101.73 278.727Z" fill="#3452A0"/>
<mask id="mask3_650_3948" style="mask-type:luminance" maskUnits="userSpaceOnUse" x="475" y="25" width="476" height="450">
<path d="M950.372 25.7737H475.023V474.421H950.372V25.7737Z" fill="white"/>
</mask>
<g mask="url(#mask3_650_3948)">
<path d="M475.023 0H949.861V473.91H475.023V0Z" fill="#FFFAEF"/>
</g>
<path d="M785.563 82.6149L811.248 146.422L750.619 133.605L689.991 120.788L724.935 69.7513L759.879 18.7148L785.563 82.5685V82.6149ZM558.451 247.288L593.395 196.251L628.339 145.215L567.71 132.398L507.082 119.58L532.766 183.434L558.451 247.288ZM841.678 266.049L644.81 297.117L662.864 410.057L859.778 378.989L841.725 266.049H841.678Z" fill="#3452A0"/>
<path d="M730.612 107.274C746.06 145.958 727.262 190.121 688.27 205.539C649.278 220.957 605.261 202.196 589.813 163.28C574.365 124.364 593.163 80.6646 631.922 65.0146C670.682 49.3647 714.932 68.5905 730.612 107.274ZM700.182 288.108L673.799 292.38L691.853 405.784L718.235 401.512L700.182 288.061V288.108ZM756.297 279.331L729.914 283.603L747.968 397.054L774.35 392.781L756.297 279.331ZM812.691 270.322L786.308 274.594L804.362 388.045L830.744 383.772L812.691 270.368V270.322ZM880.206 98.9616L869.039 119.348L848.379 130.494L868.806 141.639L879.973 162.026L891.14 141.639L911.567 130.494L891.14 119.348L880.206 98.9616ZM536.583 339.609L525.416 359.995L504.942 371.141L525.416 382.286L536.583 402.673L547.75 382.286L568.223 371.141L547.75 359.995L536.583 339.609Z" fill="#3452A0"/>
<path d="M704.694 117.491C714.466 142.15 702.554 169.92 677.847 179.905C653.372 189.889 625.314 177.769 615.543 153.11C605.818 128.45 617.683 100.633 642.391 90.9277C667.145 81.1755 694.97 93.0639 704.694 117.491ZM584.88 284.811L597.257 362.642L609.634 440.474L648.161 394.453L658.118 382.611L649.091 324.934L636.016 316.621L584.88 284.811ZM907.285 313.51L894.908 235.678L856.382 281.699L846.145 293.82L855.451 351.265L868.759 359.577L919.662 391.388L907.285 313.556V313.51Z" fill="#B3D7ED"/>
<mask id="mask4_650_3948" style="mask-type:luminance" maskUnits="userSpaceOnUse" x="1898" y="25" width="476" height="451">
<path d="M2373.81 25.7737H1898.46V475.303H2373.81V25.7737Z" fill="white"/>
</mask>
<g mask="url(#mask4_650_3948)">
<path d="M1898.46 0.882324H2374.51V476H1898.46V0.882324Z" fill="#B3D7ED"/>
</g>
<path d="M2319.14 244.966C2331.75 235.028 2338.4 218.403 2335.29 201.313C2335.05 200.152 2334.82 199.177 2334.59 197.97C2331.01 181.112 2318.44 168.342 2302.72 164.069C2309.6 149.627 2308.67 131.562 2298.2 117.816C2297.5 116.841 2296.76 116.144 2296.3 115.215C2285.83 101.469 2268.7 95.5252 2252.79 98.358C2252.79 82.2436 2244 66.5472 2228.78 58.7455C2227.85 58.2347 2226.87 57.7703 2225.66 57.0737C2210.21 49.2255 2192.39 51.4081 2179.32 60.6495C2172.2 46.2069 2157.68 35.9904 2140.33 35.2473H2136.05C2118.69 35.0151 2103.75 44.4887 2095.89 58.7455C2083.28 48.7611 2065.46 45.9283 2049.55 53.0335C2048.62 53.4979 2047.41 53.9623 2046.43 54.4731C2030.75 61.8105 2021.26 76.996 2020.51 93.1568C2004.83 89.581 1987.71 94.8286 1976.54 107.878C1975.84 108.807 1975.1 109.55 1974.4 110.479C1963.47 123.76 1961.56 141.546 1967.75 156.5C1952.07 160.029 1938.76 172.15 1934.48 189.007C1934.25 190.214 1934.01 191.143 1933.78 192.351C1929.73 209.208 1935.69 226.019 1947.79 236.7C1935.18 246.87 1928.52 263.263 1931.87 280.353C1932.11 281.513 1932.34 282.489 1932.57 283.696C1936.15 300.553 1949 313.324 1964.44 317.597C1957.56 332.039 1958.77 349.825 1968.96 363.85C1969.66 364.825 1970.4 365.522 1971.1 366.45C1981.57 380.196 1998.69 386.141 2014.6 383.308C2014.6 399.422 2023.4 414.886 2038.85 422.92C2039.82 423.431 2040.75 423.896 2041.96 424.36C2057.41 432.208 2075.23 430.025 2088.54 420.552C2095.66 434.994 2110.18 445.211 2127.53 445.675H2131.81C2148.7 445.675 2163.68 436.202 2171.27 422.177C2183.88 432.162 2201.7 434.994 2217.38 428.121C2218.59 427.657 2219.52 427.146 2220.73 426.682C2236.41 419.344 2245.67 404.391 2246.65 388.277C2262.33 391.853 2279.45 386.837 2290.85 373.556C2291.55 372.627 2292.29 371.884 2292.99 370.955C2303.93 357.673 2306.07 339.887 2299.65 324.934C2315.33 321.358 2328.63 309.284 2333.15 292.705C2333.38 291.498 2333.61 290.569 2334.08 289.362C2337.19 272.504 2331.24 255.693 2319.09 245.012L2319.14 244.966ZM2133.53 342.952C2076.72 342.952 2030.84 297.163 2030.84 240.461C2030.84 183.759 2076.72 137.97 2133.53 137.97C2190.35 137.97 2236.22 183.759 2236.22 240.461C2236.22 297.163 2190.35 342.952 2133.53 342.952Z" fill="#FFFAEF"/>
<path d="M2072.44 87.6768L2091.94 77.7389L2089.8 99.5652L2099.8 119.023L2077.93 116.887L2058.43 126.871L2060.57 105.045L2050.62 85.5871L2072.49 87.7233L2072.44 87.6768ZM1972.12 265.585L1982.08 285.043L1979.94 306.869L1999.43 296.931L2021.3 299.067L2011.35 279.609L2013.49 257.783L1993.99 267.721L1972.12 265.585ZM2239.3 283.882L2249.25 303.34L2247.11 325.166L2266.61 315.228L2288.48 317.364L2278.52 297.906L2280.66 276.08L2261.16 286.018L2239.3 283.882ZM2227.62 100.494L2225.94 92.46L2205.75 96.4538L2214.08 77.7389L2206.45 74.3953L2197.65 94.5498L2182.9 78.1568L2176.71 83.5902L2190.95 99.2401L2170.01 103.513L2171.69 111.593L2191.88 107.553L2183.55 126.314L2191.18 129.611L2199.98 109.457L2214.73 125.803L2220.92 120.37L2206.68 104.72L2227.62 100.448V100.494Z" fill="#3452A0"/>
<path d="M2028.47 175.679C2028.47 190.4 2016.6 202.242 2001.85 202.242C1987.1 202.242 1975.24 190.4 1975.24 175.679C1975.24 160.958 1987.1 149.116 2001.85 149.116C2016.6 149.116 2028.47 160.958 2028.47 175.679ZM2176.29 351.451C2161.54 351.451 2149.68 363.292 2149.68 378.014C2149.68 392.735 2161.54 404.577 2176.29 404.577C2191.04 404.577 2202.91 392.735 2202.91 378.014C2202.91 363.292 2191.04 351.451 2176.29 351.451ZM2269.68 161.933C2254.93 161.933 2243.06 173.775 2243.06 188.496C2243.06 203.217 2254.93 215.059 2269.68 215.059C2284.43 215.059 2296.29 203.217 2296.29 188.496C2296.29 173.775 2284.43 161.933 2269.68 161.933ZM2090.03 371.605L2088.35 363.525L2068.16 367.565L2076.49 348.85L2068.86 345.506L2060.06 365.661L2045.31 349.268L2039.12 354.701L2053.41 370.351L2032.47 374.624L2034.15 382.704L2054.34 378.664L2046.01 397.379L2053.64 400.722L2062.44 380.568L2077.19 396.961L2083.37 391.527L2069.14 375.877L2090.03 371.605Z" fill="#3452A0"/>
<mask id="mask5_650_3948" style="mask-type:luminance" maskUnits="userSpaceOnUse" x="2374" y="25" width="476" height="451">
<path d="M2850 25.7737H2374.65V475.303H2850V25.7737Z" fill="white"/>
</mask>
<g mask="url(#mask5_650_3948)">
<path d="M2374.65 0.882324H2849.49V474.793H2374.65V0.882324Z" fill="#FFFAEF"/>
</g>
<path d="M2685.19 83.4509L2710.88 147.258L2589.62 121.624L2624.61 70.5873L2659.55 19.5508L2685.24 83.4044L2685.19 83.4509ZM2458.13 248.17L2493.07 197.134L2528.01 146.097L2467.39 133.28L2406.76 120.463L2432.44 184.316L2458.13 248.17ZM2741.31 266.931L2544.44 297.999L2562.49 410.939L2759.41 379.871L2741.35 266.931H2741.31Z" fill="#3452A0"/>
<path d="M2630.29 108.156C2645.73 146.84 2626.94 191.004 2587.94 206.421C2548.95 221.839 2504.93 203.078 2489.49 164.162C2474.04 125.246 2492.84 81.5469 2531.6 65.897C2570.36 50.247 2614.61 69.4728 2630.29 108.156ZM2599.81 288.99L2573.43 293.262L2591.48 406.713L2617.86 402.441L2599.81 288.99ZM2655.97 280.213L2629.59 284.485L2647.64 397.936L2674.02 393.664L2655.97 280.213ZM2712.32 271.204L2685.94 275.476L2703.99 388.88L2730.37 384.608L2712.32 271.204ZM2779.83 99.8439L2768.67 120.231L2748.01 131.376L2768.43 142.521L2779.6 162.908L2790.77 142.521L2811.19 131.376L2790.77 120.231L2779.83 99.8439ZM2436.21 340.491L2425.04 360.878L2404.62 372.023L2425.04 383.168L2436.21 403.555L2447.38 383.168L2467.85 372.023L2447.38 360.878L2436.21 340.491Z" fill="#3452A0"/>
<path d="M2604.37 118.373C2614.14 143.032 2602.23 170.803 2577.52 180.787C2553.05 190.772 2524.99 178.651 2515.22 153.992C2505.45 129.333 2517.36 101.516 2542.07 91.81C2566.77 82.0578 2594.64 93.9462 2604.37 118.373ZM2484.51 285.646L2496.88 363.478L2509.26 441.31L2547.79 395.289L2557.79 383.447L2548.77 325.77L2535.69 317.457L2484.55 285.646H2484.51ZM2806.96 314.392L2794.58 236.56L2756.06 282.582L2745.82 294.702L2755.13 352.147L2768.43 360.46L2819.34 392.271L2806.96 314.439V314.392Z" fill="#B3D7ED"/>
</g>
<defs>
<clipPath id="clip0_650_3948">
<rect width="2850" height="476" fill="white"/>
</clipPath>
</defs>
</svg>
