<svg width="2856" height="299" viewBox="0 0 2856 299" fill="none" xmlns="http://www.w3.org/2000/svg">
<rect width="2856" height="299" fill="#33529F"/>
<g clip-path="url(#clip0_694_1550)">
<path d="M1205.85 173.85C1189.77 164.34 1169.1 168.17 1158.04 161.57C1153.33 158.77 1152.21 155.88 1153.08 153.19H1147.98C1152.69 178.07 1174.19 196.88 1200.01 196.88C1204.89 196.88 1209.58 196.16 1214.05 194.91C1216.15 187.31 1215.1 179.32 1205.85 173.85ZM1167.07 142.42H1147.03C1147.03 142.6 1147 142.76 1147 142.94C1147 144.59 1147.11 146.21 1147.25 147.82H1157.37C1160.26 145.56 1164 143.66 1167.07 142.42ZM1201.13 121.22C1199.74 122.79 1198.31 124.51 1196.87 126.37C1196.87 126.4 1196.55 126.73 1196.24 127.26C1195.4 128.6 1194.33 131.59 1199.89 133.49C1202.75 134.46 1206.11 134.97 1209.8 135.21C1209.86 135.21 1209.92 135.23 1210 135.23C1210.94 135.28 1211.9 135.32 1212.87 135.35C1212.95 135.35 1213.03 135.35 1213.11 135.35C1214.09 135.37 1215.09 135.38 1216.09 135.38C1216.18 135.38 1216.29 135.38 1216.38 135.38C1217.35 135.37 1218.32 135.35 1219.32 135.32C1219.51 135.32 1219.69 135.31 1219.86 135.31C1220.7 135.29 1221.54 135.25 1222.38 135.23C1222.8 135.21 1223.2 135.18 1223.62 135.17C1224.1 135.14 1224.59 135.12 1225.06 135.1C1228.44 134.93 1231.93 134.71 1235.42 134.51C1241.14 134.19 1246.88 133.94 1252.26 134.13C1252.24 134.08 1252.23 134.04 1252.22 134H1252.24C1251.86 130.64 1250.01 124.42 1249.2 122.91H1249.19V122.88C1240.18 123.77 1231.15 124.83 1223.8 124.21C1223.71 124.21 1223.61 124.2 1223.52 124.19C1223.3 124.17 1223.1 124.13 1222.87 124.11C1219.58 123.73 1216.59 122.95 1214.1 121.62C1211.04 119.96 1209.62 118.3 1209.28 116.66C1209.25 116.51 1209.22 116.36 1209.21 116.22C1209.21 116.18 1209.21 116.13 1209.21 116.09C1209.15 114.85 1209.64 113.61 1210.51 112.4C1210.53 112.38 1210.56 112.34 1210.58 112.31C1210.71 112.14 1210.84 111.99 1210.96 111.82C1211.06 111.72 1211.15 111.61 1211.24 111.49C1211.64 111.03 1212.08 110.58 1212.58 110.13H1158.02C1156.71 111.85 1155.51 113.67 1154.42 115.55H1206.5C1204.95 117.07 1203.22 118.86 1201.43 120.9H1151.67C1150.89 122.66 1150.19 124.46 1149.61 126.3H1188.8C1194.34 122.79 1201.01 120.59 1201.13 121.24M1229.24 101.72L1224.89 107.06C1224.68 107.34 1220.9 111.72 1227.8 113.61C1232.45 114.89 1238.35 114.8 1244.81 114.17C1241.21 108.39 1236.57 103.37 1231.13 99.36H1168.88C1166.66 100.99 1164.52 102.79 1162.57 104.76H1220.76C1225.63 102.29 1230.03 100.96 1229.23 101.73M1200.01 89C1192.09 89 1184.59 90.81 1177.85 93.99H1222.17C1215.41 90.81 1207.93 89 1200 89M1252.75 148.23V148.18C1234.86 142.21 1201.71 149.93 1187.2 142.11C1186.8 141.9 1186.44 141.68 1186.1 141.47C1185.99 141.42 1185.91 141.34 1185.81 141.29C1185.58 141.13 1185.35 140.99 1185.13 140.83C1185.02 140.76 1184.92 140.68 1184.83 140.61C1184.64 140.47 1184.45 140.33 1184.29 140.19C1184.19 140.1 1184.1 140.03 1184.02 139.95C1183.86 139.81 1183.71 139.69 1183.57 139.54C1183.49 139.47 1183.42 139.38 1183.35 139.31C1183.21 139.17 1183.08 139.02 1182.96 138.88C1182.9 138.81 1182.85 138.74 1182.78 138.67C1182.68 138.53 1182.56 138.38 1182.45 138.22C1182.41 138.16 1182.38 138.11 1182.34 138.06C1182.24 137.9 1182.14 137.72 1182.06 137.56C1182.04 137.52 1182.02 137.48 1181.99 137.44C1181.9 137.25 1181.83 137.07 1181.76 136.88C1181.76 136.86 1181.76 136.84 1181.74 136.83C1181.16 135.07 1181.63 133.32 1182.74 131.66H1148.19C1147.82 133.43 1147.53 135.24 1147.35 137.07H1176.26C1173.87 139.54 1171.21 142.52 1168.51 146.01L1168.44 146.09C1168.44 146.09 1168.29 146.27 1168.1 146.52C1167.29 147.64 1165.62 150.78 1171.05 152.95C1172.07 153.36 1173.19 153.72 1174.41 154.05C1192.67 158.93 1231.82 155.21 1248.45 164.76C1248.45 164.76 1248.45 164.74 1248.47 164.72C1248.49 164.73 1248.49 164.74 1248.49 164.74C1250.7 159.44 1251.78 155.41 1252.41 150.99C1252.55 150.11 1252.66 149.17 1252.76 148.24H1252.74L1252.75 148.23Z" fill="white"/>
<path d="M1298.06 145.92H1307.66V154.41C1306.28 155.43 1304.63 156.27 1302.75 156.9C1300.78 157.56 1298.67 157.88 1296.45 157.88C1294.05 157.88 1291.86 157.45 1289.92 156.6C1287.99 155.76 1286.3 154.58 1284.9 153.1C1283.5 151.63 1282.41 149.85 1281.65 147.79C1280.89 145.73 1280.51 143.47 1280.51 141.04V140.91C1280.51 138.67 1280.91 136.51 1281.69 134.49C1282.47 132.49 1283.55 130.7 1284.92 129.2C1286.27 127.72 1287.9 126.51 1289.76 125.6C1291.6 124.71 1293.62 124.26 1295.74 124.26C1297.2 124.26 1298.57 124.38 1299.83 124.62C1301.06 124.87 1302.2 125.22 1303.23 125.64C1304.27 126.07 1305.26 126.6 1306.19 127.22C1307.13 127.85 1308.06 128.56 1308.97 129.32L1309.25 129.57L1315.09 122.61L1314.81 122.37C1313.57 121.31 1312.27 120.36 1310.95 119.55C1309.63 118.73 1308.21 118.05 1306.73 117.5C1305.27 116.94 1303.64 116.51 1301.88 116.21C1300.17 115.91 1298.22 115.76 1296.08 115.76C1292.43 115.76 1289.02 116.43 1285.94 117.77C1282.87 119.11 1280.17 120.95 1277.94 123.25C1275.71 125.53 1273.95 128.24 1272.7 131.31C1271.46 134.36 1270.84 137.62 1270.84 141V141.14C1270.84 144.71 1271.45 148.05 1272.65 151.07C1273.86 154.11 1275.58 156.79 1277.78 159.02C1279.98 161.27 1282.67 163.05 1285.77 164.33C1288.87 165.61 1292.37 166.25 1296.15 166.25C1298.27 166.25 1300.33 166.05 1302.27 165.65C1304.19 165.27 1306.03 164.72 1307.74 164.03C1309.4 163.35 1311 162.52 1312.47 161.59C1313.94 160.66 1315.28 159.68 1316.46 158.67L1316.59 158.56V137.81H1295.22L1298.08 145.91L1298.06 145.92Z" fill="white"/>
<path d="M1338.37 130.06C1336.63 131.43 1335.2 133.17 1334.1 135.28V128.4H1324.97V165.43H1334.1V151.25C1334.1 148.92 1334.39 146.84 1334.97 145.08C1335.54 143.33 1336.37 141.86 1337.43 140.72C1338.48 139.58 1339.75 138.7 1341.21 138.13C1342.68 137.56 1344.32 137.26 1346.09 137.26H1346.95V127.74H1346.59C1343.31 127.58 1340.55 128.37 1338.37 130.07V130.06Z" fill="white"/>
<path d="M1376.23 149.21C1376.23 151.93 1375.5 154.07 1374.08 155.56C1372.67 157.05 1370.8 157.81 1368.5 157.81C1366.2 157.81 1364.35 157.08 1363.09 155.64C1361.82 154.19 1361.17 152.07 1361.17 149.34V128.4H1352.05V151.86C1352.05 156.2 1353.21 159.7 1355.5 162.27C1357.8 164.87 1361.1 166.18 1365.3 166.18C1368.15 166.18 1370.53 165.52 1372.36 164.2C1373.84 163.15 1375.14 161.91 1376.23 160.51V165.43H1385.35V128.4H1376.23V149.21Z" fill="white"/>
<path d="M1427.08 132.65C1425.47 131.02 1423.62 129.76 1421.57 128.92C1419.53 128.08 1417.38 127.65 1415.19 127.65C1412.21 127.65 1409.68 128.33 1407.65 129.67C1405.98 130.78 1404.52 132.13 1403.3 133.7V128.41H1394.17V176.44H1403.3V160.5C1404.49 161.89 1405.93 163.14 1407.59 164.22C1409.61 165.54 1412.17 166.21 1415.2 166.21C1417.38 166.21 1419.54 165.79 1421.62 164.94C1423.71 164.09 1425.57 162.83 1427.15 161.22C1428.75 159.59 1430.05 157.57 1431.01 155.19C1431.96 152.82 1432.44 150.06 1432.44 147.01V146.88C1432.44 143.82 1431.94 141.06 1430.97 138.7C1429.99 136.32 1428.68 134.29 1427.09 132.67L1427.08 132.65ZM1413.29 135.61C1414.66 135.61 1415.96 135.87 1417.17 136.4C1418.38 136.93 1419.44 137.68 1420.34 138.65C1421.25 139.63 1421.97 140.83 1422.5 142.21C1423.03 143.6 1423.31 145.16 1423.31 146.85V146.98C1423.31 148.71 1423.04 150.3 1422.5 151.7C1421.97 153.09 1421.25 154.27 1420.35 155.22C1419.45 156.17 1418.38 156.91 1417.17 157.44C1414.77 158.49 1411.85 158.5 1409.4 157.44C1408.16 156.9 1407.07 156.15 1406.15 155.18C1405.22 154.21 1404.47 153.01 1403.92 151.62C1403.37 150.23 1403.09 148.67 1403.09 146.98V146.85C1403.09 145.16 1403.37 143.62 1403.92 142.25C1404.47 140.88 1405.22 139.69 1406.15 138.68C1407.07 137.7 1408.16 136.94 1409.4 136.41C1410.62 135.88 1411.93 135.61 1413.3 135.61H1413.29Z" fill="white"/>
<path d="M1469.79 133.29C1468.06 131.55 1465.97 130.15 1463.56 129.15C1461.15 128.16 1458.51 127.65 1455.68 127.65C1452.85 127.65 1450.2 128.17 1447.81 129.19C1445.42 130.21 1443.32 131.63 1441.58 133.36C1439.84 135.1 1438.45 137.16 1437.45 139.49C1436.45 141.81 1435.94 144.33 1435.94 146.98V147.12C1435.94 149.72 1436.43 152.22 1437.4 154.55C1438.39 156.88 1439.77 158.93 1441.51 160.65C1443.26 162.37 1445.35 163.75 1447.74 164.75C1450.14 165.74 1452.76 166.25 1455.55 166.25C1458.34 166.25 1461.04 165.73 1463.45 164.71C1465.86 163.69 1467.97 162.29 1469.72 160.54C1471.47 158.79 1472.86 156.73 1473.86 154.41C1474.86 152.09 1475.37 149.58 1475.37 146.98V146.85C1475.37 144.2 1474.87 141.68 1473.9 139.38C1472.92 137.07 1471.54 135.03 1469.79 133.29ZM1455.69 158.3C1454.15 158.3 1452.72 158 1451.44 157.41C1450.15 156.82 1449.02 155.99 1448.08 154.95C1447.14 153.91 1446.39 152.71 1445.87 151.36C1445.33 150.02 1445.07 148.55 1445.07 146.99V146.86C1445.07 145.36 1445.31 143.9 1445.79 142.52C1446.27 141.15 1446.98 139.96 1447.9 138.97C1448.81 137.99 1449.93 137.18 1451.24 136.58C1452.52 135.99 1453.98 135.69 1455.55 135.69C1457.12 135.69 1458.58 135.99 1459.87 136.58C1461.16 137.18 1462.3 138 1463.24 139.01C1464.18 140.03 1464.92 141.24 1465.45 142.6C1465.98 143.98 1466.25 145.47 1466.25 147V147.14C1466.25 148.65 1466.01 150.1 1465.52 151.45C1465.04 152.79 1464.33 153.98 1463.41 155C1462.49 156.02 1461.37 156.84 1460.08 157.43C1458.8 158.02 1457.33 158.32 1455.69 158.32V158.3Z" fill="white"/>
<path d="M1507.15 139.02L1492.72 116.58H1483.15V165.43H1492.28V131.93L1506.75 153.61H1507.42L1522.04 131.79V165.43H1531.17V116.58H1521.58L1507.15 139.02Z" fill="white"/>
<path d="M1610.25 128.41H1600.46L1592.26 140.08L1584.19 128.56L1584.08 128.41H1574.09L1587.2 146.64L1573.6 165.43H1583.39L1592.06 153L1600.8 165.43H1610.79L1597.13 146.44L1610.25 128.41Z" fill="white"/>
<path d="M1624.32 128.41H1615.19V165.44H1624.32V128.41Z" fill="white"/>
<path d="M1624.47 113.95H1615.08V122.59H1624.47V113.95Z" fill="white"/>
<path d="M1707.46 139.39C1706.48 137.08 1705.11 135.04 1703.36 133.3C1701.62 131.56 1699.52 130.16 1697.13 129.16C1694.73 128.17 1692.08 127.66 1689.25 127.66C1686.42 127.66 1683.77 128.18 1681.37 129.2C1678.97 130.23 1676.87 131.64 1675.14 133.37C1673.4 135.11 1672 137.17 1671.01 139.5C1670.01 141.81 1669.5 144.33 1669.5 146.99V147.13C1669.5 149.73 1669.99 152.24 1670.97 154.56C1671.94 156.88 1673.32 158.93 1675.07 160.66C1676.82 162.38 1678.91 163.76 1681.3 164.75C1683.69 165.75 1686.32 166.26 1689.11 166.26C1691.9 166.26 1694.6 165.74 1697.02 164.72C1699.44 163.7 1701.54 162.3 1703.29 160.55C1705.04 158.8 1706.43 156.74 1707.42 154.42C1708.42 152.1 1708.93 149.59 1708.93 146.99V146.86C1708.93 144.21 1708.43 141.69 1707.46 139.39ZM1689.25 158.3C1687.71 158.3 1686.28 158 1685 157.41C1683.71 156.82 1682.58 155.99 1681.63 154.95C1680.69 153.91 1679.94 152.7 1679.42 151.36C1678.89 150.02 1678.63 148.55 1678.63 146.99V146.86C1678.63 145.36 1678.88 143.9 1679.36 142.51C1679.84 141.14 1680.54 139.95 1681.46 138.97C1682.37 137.99 1683.49 137.18 1684.79 136.58C1686.08 135.99 1687.53 135.69 1689.11 135.69C1690.69 135.69 1692.14 135.99 1693.42 136.58C1694.72 137.19 1695.83 137.98 1696.78 139.01C1697.73 140.02 1698.47 141.23 1699 142.6C1699.53 143.97 1699.79 145.45 1699.79 146.99V147.13C1699.79 148.64 1699.54 150.09 1699.06 151.44C1698.59 152.77 1697.87 153.96 1696.95 154.98C1696.02 156 1694.9 156.82 1693.62 157.41C1692.35 158 1690.87 158.3 1689.23 158.3H1689.25Z" fill="white"/>
<path d="M1551.12 123.55H1558.42L1567.07 115.6H1556.38L1551.12 123.55Z" fill="white"/>
<path d="M1655.37 154.98C1654.49 156 1653.44 156.82 1652.22 157.41C1651.01 158 1649.62 158.3 1648.08 158.3C1646.63 158.3 1645.28 158 1644.07 157.41C1642.85 156.82 1641.78 155.99 1640.89 154.95C1640 153.91 1639.29 152.71 1638.8 151.36C1638.3 150.03 1638.04 148.55 1638.04 146.99V146.86C1638.04 145.36 1638.28 143.9 1638.73 142.51C1639.18 141.14 1639.86 139.95 1640.72 138.96C1641.58 137.99 1642.64 137.18 1643.87 136.57C1645.09 135.98 1646.46 135.68 1647.95 135.68C1649.44 135.68 1650.81 135.98 1652.02 136.57C1653.25 137.17 1654.3 137.97 1655.2 139C1655.72 139.59 1656.17 140.29 1656.57 141.04H1665.85C1665.67 140.44 1665.5 139.89 1665.3 139.39C1664.38 137.09 1663.08 135.04 1661.43 133.3C1659.78 131.56 1657.8 130.16 1655.53 129.16C1653.26 128.16 1650.75 127.65 1648.08 127.65C1645.41 127.65 1642.9 128.17 1640.63 129.19C1638.36 130.22 1636.37 131.63 1634.74 133.36C1633.09 135.1 1631.77 137.16 1630.83 139.49C1629.88 141.8 1629.41 144.33 1629.41 146.98V147.12C1629.41 149.72 1629.88 152.23 1630.8 154.55C1631.72 156.87 1633.03 158.92 1634.68 160.65C1636.33 162.37 1638.31 163.75 1640.57 164.75C1642.84 165.75 1645.32 166.26 1647.95 166.26C1650.58 166.26 1653.15 165.74 1655.44 164.72C1657.73 163.7 1659.71 162.3 1661.37 160.55C1663.02 158.8 1664.33 156.74 1665.28 154.42C1665.55 153.76 1665.77 153.06 1665.96 152.33H1657.02C1656.6 153.31 1656.05 154.2 1655.38 154.98H1655.37Z" fill="white"/>
<path d="M1562.24 154.99C1561.4 156.01 1560.39 156.82 1559.23 157.41C1558.08 158 1556.75 158.29 1555.27 158.29C1553.88 158.29 1552.59 157.99 1551.44 157.41C1550.27 156.82 1549.25 156 1548.39 154.96C1547.53 153.92 1546.85 152.71 1546.38 151.36C1546.15 150.72 1545.98 150.07 1545.86 149.38H1573.04C1573.13 148.59 1573.19 147.79 1573.19 146.99V146.86C1573.19 144.21 1572.74 141.7 1571.85 139.4C1570.96 137.09 1569.71 135.05 1568.13 133.31C1566.55 131.57 1564.63 130.17 1562.45 129.16C1560.26 128.16 1557.85 127.65 1555.27 127.65C1552.69 127.65 1550.27 128.17 1548.09 129.19C1545.9 130.22 1543.99 131.63 1542.41 133.37C1540.83 135.11 1539.57 137.17 1538.66 139.5C1537.76 141.81 1537.29 144.33 1537.29 146.98V147.12C1537.29 149.72 1537.74 152.22 1538.62 154.54C1539.51 156.86 1540.76 158.91 1542.35 160.64C1543.94 162.36 1545.85 163.74 1548.02 164.74C1550.21 165.74 1552.6 166.25 1555.14 166.25C1557.68 166.25 1560.15 165.73 1562.36 164.7C1564.56 163.68 1566.47 162.27 1568.06 160.52C1569.63 158.79 1570.89 156.74 1571.79 154.44H1562.61C1562.48 154.62 1562.38 154.82 1562.23 154.98L1562.24 154.99ZM1546.32 142.5C1546.76 141.13 1547.4 139.94 1548.23 138.95C1549.06 137.97 1550.07 137.17 1551.24 136.57C1552.41 135.98 1553.72 135.68 1555.14 135.68C1556.56 135.68 1557.88 135.98 1559.04 136.57C1560.2 137.16 1561.23 137.98 1562.08 138.99C1562.94 140 1563.61 141.21 1564.1 142.58C1564.17 142.77 1564.21 142.96 1564.27 143.14H1546.14C1546.2 142.93 1546.25 142.71 1546.32 142.5Z" fill="white"/>
<path d="M1435.04 193.08H1441.79V211.09H1445.03V193.08H1451.78V190.05H1435.04V193.08Z" fill="white"/>
<path d="M1476.16 196.5C1476.16 194.82 1475.56 193.3 1474.47 192.2C1473.08 190.82 1470.93 190.05 1468.42 190.05H1459.3V211.09H1462.5V203.28H1467.54L1473.37 211.09H1477.33L1471.03 202.71C1474.24 201.87 1476.14 199.61 1476.14 196.49L1476.16 196.5ZM1462.52 193.08H1468.26C1471.23 193.08 1472.93 194.35 1472.93 196.63C1472.93 198.91 1471.09 200.3 1468.23 200.3H1462.52V193.08Z" fill="white"/>
<path d="M1491.91 189.91L1482.33 211.09H1485.69L1488.07 205.78H1498.41L1500.77 211.09H1504.24L1494.65 189.91H1491.92H1491.91ZM1497.09 202.77H1489.38L1493.25 194.16L1497.1 202.77H1497.09Z" fill="white"/>
<path d="M1526.02 205.28L1514.05 190.05H1511.23V211.09H1514.37V195.49L1526.52 210.91L1526.66 211.09H1529.17V190.05H1526.02V205.28Z" fill="white"/>
<path d="M1545.92 199.02C1541.2 198.01 1540.83 196.91 1540.83 195.52C1540.83 193.88 1542.4 192.74 1544.64 192.74C1546.66 192.74 1548.41 193.4 1550.14 194.82L1550.52 195.12L1552.41 192.62L1552.06 192.33C1549.81 190.52 1547.61 189.75 1544.7 189.75C1540.6 189.75 1537.63 192.26 1537.63 195.77C1537.63 199.68 1540.47 201.1 1544.75 202.03C1549.25 202.98 1549.61 204.07 1549.61 205.45C1549.61 207.22 1547.99 208.4 1545.6 208.4C1543.07 208.4 1541.16 207.61 1539.02 205.68L1538.66 205.35L1536.64 207.73L1536.98 208.04C1539.53 210.32 1542.24 211.38 1545.51 211.38C1549.83 211.38 1552.84 208.85 1552.84 205.17C1552.84 201.92 1550.77 200.08 1545.92 199.03V199.02Z" fill="white"/>
<path d="M1568.75 190.05H1560.76V211.09H1563.96V204H1568.37C1573.38 204 1576.74 201.17 1576.74 196.9C1576.74 192.63 1573.6 190.06 1568.75 190.06V190.05ZM1563.96 193.08H1568.58C1571.71 193.08 1573.51 194.5 1573.51 197.04C1573.51 199.44 1571.53 200.99 1568.47 200.99H1563.97V193.08H1563.96Z" fill="white"/>
<path d="M1594.03 189.71C1588 189.71 1583.28 194.48 1583.28 200.63C1583.28 206.78 1587.88 211.44 1593.97 211.44C1600.06 211.44 1604.72 206.67 1604.72 200.51C1604.72 194.35 1600.12 189.7 1594.02 189.7L1594.03 189.71ZM1594.03 208.4C1589.78 208.4 1586.57 205.04 1586.57 200.52C1586.57 196 1589.75 192.74 1593.97 192.74C1598.19 192.74 1601.43 196.11 1601.43 200.63C1601.43 205.15 1598.25 208.4 1594.03 208.4Z" fill="white"/>
<path d="M1629.66 196.5C1629.66 194.82 1629.06 193.3 1627.97 192.2C1626.58 190.82 1624.43 190.05 1621.92 190.05H1612.8V211.09H1616.01V203.28H1621.05L1626.88 211.09H1630.84L1624.54 202.71C1627.75 201.87 1629.65 199.61 1629.65 196.49L1629.66 196.5ZM1616.02 193.08H1621.76C1624.73 193.08 1626.43 194.35 1626.43 196.63C1626.43 198.91 1624.59 200.3 1621.73 200.3H1616.02V193.08Z" fill="white"/>
<path d="M1636.17 193.08H1642.92V211.09H1646.15V193.08H1652.91V190.05H1636.17V193.08Z" fill="white"/>
<path d="M1663.65 201.99H1674.62V198.98H1663.65V193.06H1675.91V190.05H1660.44V211.09H1676.06V208.09H1663.65V201.99Z" fill="white"/>
<path d="M1691.69 199.02C1686.97 198.01 1686.6 196.91 1686.6 195.52C1686.6 193.88 1688.17 192.74 1690.41 192.74C1692.43 192.74 1694.18 193.4 1695.92 194.82L1696.3 195.12L1698.19 192.62L1697.84 192.33C1695.59 190.52 1693.39 189.75 1690.48 189.75C1686.38 189.75 1683.41 192.26 1683.41 195.77C1683.41 199.68 1686.26 201.1 1690.53 202.03C1695.03 202.98 1695.39 204.07 1695.39 205.45C1695.39 207.22 1693.78 208.4 1691.38 208.4C1688.85 208.4 1686.94 207.61 1684.8 205.68L1684.44 205.35L1682.43 207.73L1682.77 208.04C1685.32 210.32 1688.03 211.38 1691.3 211.38C1695.61 211.38 1698.63 208.85 1698.63 205.17C1698.63 201.92 1696.56 200.08 1691.71 199.03L1691.69 199.02Z" fill="white"/>
</g>
<defs>
<clipPath id="clip0_694_1550">
<rect width="561.93" height="122.44" fill="white" transform="translate(1147 89)"/>
</clipPath>
</defs>
</svg>
