<svg width="2052" height="447" viewBox="0 0 2052 447" fill="none" xmlns="http://www.w3.org/2000/svg">
<g clip-path="url(#clip0_759_1579)">
<path d="M214.903 309.768C156.183 275.049 80.7026 289.031 40.3148 264.936C23.1153 254.714 19.0254 244.163 22.2023 234.343H3.57867C20.7782 325.174 99.2897 393.845 193.577 393.845C211.397 393.845 228.523 391.216 244.847 386.653C252.515 358.907 248.681 329.737 214.903 309.768ZM73.2896 195.024H0.109551C0.109551 195.681 0 196.265 0 196.922C0 202.946 0.401687 208.86 0.912925 214.738H37.8681C48.4215 206.487 62.0789 199.551 73.2896 195.024ZM197.667 117.628C192.591 123.359 187.369 129.639 182.11 136.429C182.11 136.539 180.942 137.743 179.81 139.678C176.742 144.57 172.835 155.486 193.138 162.423C203.582 165.964 215.852 167.826 229.327 168.702C229.546 168.702 229.765 168.775 230.057 168.775C233.49 168.958 236.995 169.104 240.538 169.213C240.83 169.213 241.122 169.213 241.414 169.213C244.993 169.286 248.644 169.323 252.296 169.323C252.625 169.323 253.026 169.323 253.355 169.323C256.897 169.286 260.439 169.213 264.091 169.104C264.785 169.104 265.442 169.067 266.063 169.067C269.13 168.994 272.198 168.848 275.265 168.775C276.799 168.702 278.26 168.592 279.793 168.556C281.546 168.446 283.335 168.373 285.052 168.3C297.394 167.68 310.139 166.877 322.883 166.146C343.771 164.978 364.732 164.066 384.378 164.759C384.305 164.577 384.268 164.431 384.232 164.285H384.305C382.917 152.018 376.162 129.31 373.204 123.798H373.167V123.688C340.265 126.937 307.291 130.807 280.451 128.544C280.122 128.544 279.757 128.507 279.428 128.471C278.625 128.397 277.894 128.251 277.055 128.178C265.04 126.791 254.122 123.944 245.029 119.088C233.855 113.028 228.669 106.967 227.428 100.98C227.318 100.433 227.209 99.885 227.172 99.3739C227.172 99.2279 227.172 99.0453 227.172 98.8993C226.953 94.3723 228.743 89.8454 231.919 85.428C231.993 85.3549 232.102 85.2089 232.175 85.0994C232.65 84.4788 233.125 83.9312 233.563 83.3105C233.928 82.9454 234.257 82.5439 234.585 82.1058C236.046 80.4264 237.653 78.7836 239.479 77.1407H40.2417C35.458 83.42 31.076 90.0644 27.0956 96.9279H217.276C211.616 102.477 205.299 109.012 198.762 116.459H17.0534C14.2051 122.885 11.6489 129.456 9.53094 136.174H152.641C172.872 123.359 197.228 115.328 197.667 117.701M300.316 46.4378L284.431 65.9329C283.664 66.9551 269.861 82.9454 295.057 89.8454C312.038 94.5184 333.583 94.1898 357.173 91.8898C344.027 70.7884 327.083 52.4615 307.218 37.822H79.8992C71.7924 43.7727 63.9778 50.3441 56.857 57.5361H269.349C287.133 48.5187 303.201 43.6632 300.279 46.4743M193.577 0C164.655 0 137.267 6.60789 112.655 18.2173H274.498C249.813 6.60789 222.498 0 193.54 0M386.167 216.235V216.052C320.838 194.257 199.785 222.441 146.798 193.892C145.338 193.126 144.023 192.322 142.781 191.556C142.38 191.373 142.088 191.081 141.723 190.899C140.883 190.315 140.043 189.803 139.239 189.219C138.838 188.964 138.472 188.672 138.144 188.416C137.45 187.905 136.756 187.394 136.172 186.883C135.807 186.554 135.478 186.299 135.186 186.007C134.602 185.496 134.054 185.057 133.543 184.51C133.251 184.254 132.995 183.926 132.739 183.67C132.228 183.159 131.753 182.611 131.315 182.1C131.096 181.845 130.913 181.589 130.658 181.334C130.293 180.823 129.854 180.275 129.453 179.691C129.307 179.472 129.197 179.289 129.051 179.107C128.686 178.523 128.321 177.865 128.029 177.281C127.956 177.135 127.883 176.989 127.773 176.843C127.444 176.15 127.189 175.492 126.933 174.799C126.933 174.726 126.933 174.653 126.86 174.616C124.742 168.191 126.458 161.802 130.512 155.742H4.34552C2.99439 162.204 1.9354 168.812 1.2781 175.492H106.849C98.1212 184.51 88.4077 195.389 78.5481 208.13L78.2925 208.422C78.2925 208.422 77.7447 209.079 77.0509 209.992C74.093 214.081 67.9947 225.544 87.8234 233.467C91.5481 234.963 95.638 236.278 100.093 237.482C166.773 255.298 309.737 241.717 370.465 276.582C370.465 276.582 370.465 276.509 370.538 276.436C370.611 276.473 370.611 276.509 370.611 276.509C378.681 257.16 382.625 242.447 384.926 226.311C385.437 223.098 385.839 219.667 386.204 216.271H386.131L386.167 216.235Z" fill="#D7282F"/>
<path d="M551.626 207.801H586.682V238.797C581.643 242.52 575.618 245.587 568.752 247.887C561.558 250.296 553.853 251.465 545.747 251.465C536.983 251.465 528.985 249.895 521.901 246.792C514.853 243.725 508.682 239.417 503.569 234.014C498.457 228.647 494.477 222.149 491.701 214.628C488.926 207.108 487.538 198.857 487.538 189.986V189.511C487.538 181.333 488.999 173.448 491.848 166.073C494.696 158.772 498.64 152.237 503.643 146.761C508.572 141.358 514.525 136.94 521.317 133.618C528.036 130.369 535.412 128.726 543.154 128.726C548.485 128.726 553.488 129.164 558.089 130.04C562.581 130.953 566.744 132.231 570.505 133.764C574.303 135.334 577.918 137.269 581.314 139.532C584.747 141.832 588.143 144.424 591.466 147.199L592.488 148.111L613.814 122.702L612.792 121.826C608.264 117.956 603.517 114.488 598.696 111.531C593.876 108.537 588.691 106.055 583.286 104.047C577.955 102.002 572.002 100.432 565.575 99.3372C559.331 98.2419 552.21 97.6943 544.396 97.6943C531.067 97.6943 518.615 100.14 507.367 105.032C496.157 109.924 486.297 116.642 478.154 125.039C470.01 133.362 463.583 143.256 459.019 154.464C454.491 165.599 452.227 177.5 452.227 189.84V190.351C452.227 203.384 454.454 215.578 458.836 226.603C463.255 237.701 469.536 247.485 477.569 255.627C485.603 263.841 495.426 270.339 506.746 275.012C518.067 279.685 530.848 282.022 544.651 282.022C552.393 282.022 559.915 281.291 567 279.831C574.011 278.444 580.73 276.436 586.974 273.917C593.036 271.434 598.879 268.404 604.247 265.009C609.615 261.614 614.508 258.036 618.817 254.349L619.292 253.947V178.194H541.255L551.699 207.765L551.626 207.801Z" fill="#D7282F"/>
<path d="M698.825 149.9C692.471 154.902 687.249 161.254 683.233 168.957V143.84H649.893V279.028H683.233V227.26C683.233 218.754 684.292 211.16 686.41 204.735C688.491 198.346 691.522 192.979 695.393 188.817C699.227 184.655 703.865 181.443 709.196 179.362C714.564 177.281 720.553 176.186 727.016 176.186H730.157V141.43H728.842C716.865 140.846 706.786 143.73 698.825 149.937V149.9Z" fill="#D7282F"/>
<path d="M837.079 219.812C837.079 229.742 834.414 237.555 829.228 242.995C824.079 248.434 817.251 251.209 808.852 251.209C800.453 251.209 793.697 248.544 789.096 243.287C784.458 237.993 782.085 230.254 782.085 220.287V143.84H748.781V229.487C748.781 245.331 753.017 258.109 761.38 267.491C769.779 276.983 781.829 281.766 797.166 281.766C807.574 281.766 816.265 279.356 822.947 274.537C828.352 270.704 833.099 266.177 837.079 261.066V279.028H870.383V143.84H837.079V219.812Z" fill="#D7282F"/>
<path d="M1022.77 159.356C1016.89 153.405 1010.13 148.805 1002.65 145.739C995.197 142.672 987.346 141.102 979.349 141.102C968.467 141.102 959.228 143.585 951.815 148.477C945.716 152.529 940.385 157.457 935.93 163.189V143.877H902.59V319.223H935.93V261.03C940.275 266.104 945.534 270.668 951.596 274.611C958.972 279.43 968.321 281.876 979.385 281.876C987.346 281.876 995.233 280.342 1002.83 277.239C1010.46 274.136 1017.25 269.536 1023.02 263.658C1028.87 257.708 1033.61 250.333 1037.12 241.644C1040.59 232.992 1042.34 222.916 1042.34 211.781V211.306C1042.34 200.135 1040.51 190.059 1036.97 181.443C1033.39 172.754 1028.61 165.343 1022.8 159.429L1022.77 159.356ZM972.41 170.162C977.413 170.162 982.16 171.111 986.579 173.046C990.998 174.981 994.868 177.719 998.155 181.26C1001.48 184.838 1004.11 189.219 1006.04 194.257C1007.98 199.332 1009 205.027 1009 211.197V211.671C1009 217.987 1008.01 223.792 1006.04 228.903C1004.11 233.978 1001.48 238.285 998.191 241.754C994.905 245.222 990.998 247.924 986.579 249.858C977.815 253.692 967.152 253.728 958.205 249.858C953.677 247.887 949.697 245.149 946.337 241.608C942.941 238.066 940.202 233.686 938.194 228.611C936.186 223.536 935.163 217.841 935.163 211.671V211.197C935.163 205.027 936.186 199.405 938.194 194.403C940.202 189.402 942.941 185.057 946.337 181.37C949.697 177.792 953.677 175.018 958.205 173.083C962.66 171.148 967.444 170.162 972.447 170.162H972.41Z" fill="#D7282F"/>
<path d="M1178.73 161.692C1172.42 155.34 1164.78 150.229 1155.98 146.578C1147.18 142.964 1137.54 141.102 1127.21 141.102C1116.87 141.102 1107.2 143 1098.47 146.724C1089.74 150.448 1082.07 155.632 1075.72 161.948C1069.36 168.3 1064.29 175.821 1060.64 184.327C1056.99 192.797 1055.12 201.997 1055.12 211.671V212.182C1055.12 221.674 1056.91 230.801 1060.45 239.308C1064.07 247.814 1069.11 255.298 1075.46 261.577C1081.85 267.857 1089.49 272.895 1098.21 276.546C1106.98 280.16 1116.54 282.022 1126.73 282.022C1136.92 282.022 1146.78 280.123 1155.58 276.399C1164.38 272.676 1172.09 267.565 1178.48 261.176C1184.87 254.787 1189.94 247.266 1193.6 238.797C1197.25 230.327 1199.11 221.163 1199.11 211.671V211.197C1199.11 201.522 1197.28 192.322 1193.74 183.926C1190.16 175.492 1185.12 168.045 1178.73 161.692ZM1127.24 252.998C1121.62 252.998 1116.4 251.903 1111.72 249.749C1107.01 247.595 1102.89 244.565 1099.45 240.768C1096.02 236.971 1093.28 232.59 1091.38 227.662C1089.41 222.77 1088.46 217.403 1088.46 211.708V211.233C1088.46 205.757 1089.34 200.427 1091.09 195.389C1092.85 190.387 1095.44 186.043 1098.8 182.429C1102.12 178.851 1106.21 175.894 1110.99 173.703C1115.67 171.549 1121 170.454 1126.73 170.454C1132.47 170.454 1137.8 171.549 1142.51 173.703C1147.22 175.894 1151.38 178.887 1154.81 182.575C1158.25 186.299 1160.95 190.716 1162.88 195.681C1164.82 200.719 1165.81 206.159 1165.81 211.744V212.256C1165.81 217.768 1164.93 223.062 1163.14 227.99C1161.39 232.882 1158.79 237.227 1155.44 240.951C1152.08 244.674 1147.99 247.668 1143.28 249.822C1138.6 251.976 1133.23 253.071 1127.24 253.071V252.998Z" fill="#D7282F"/>
<path d="M1315.16 182.611L1262.47 100.688H1227.52V279.028H1260.86V156.727L1313.7 235.876H1316.15L1369.53 156.216V279.028H1402.87V100.688H1367.85L1315.16 182.611Z" fill="#D7282F"/>
<path d="M1691.65 143.876H1655.9L1625.96 186.481L1596.49 144.424L1596.09 143.876H1559.61L1607.48 210.43L1557.82 279.028H1593.57L1625.23 233.649L1657.14 279.028H1693.62L1643.74 209.7L1691.65 143.876Z" fill="#D7282F"/>
<path d="M1743.03 143.876H1709.69V279.064H1743.03V143.876Z" fill="#D7282F"/>
<path d="M1743.58 91.0864H1709.29V122.629H1743.58V91.0864Z" fill="#D7282F"/>
<path d="M2046.63 183.962C2043.05 175.529 2038.05 168.081 2031.66 161.729C2025.31 155.377 2017.64 150.266 2008.91 146.615C2000.15 143.001 1990.47 141.139 1980.13 141.139C1969.8 141.139 1960.12 143.037 1951.36 146.761C1942.6 150.521 1934.93 155.669 1928.61 161.985C1922.26 168.337 1917.14 175.857 1913.53 184.364C1909.88 192.797 1908.01 201.997 1908.01 211.708V212.219C1908.01 221.711 1909.8 230.875 1913.38 239.344C1916.92 247.814 1921.96 255.298 1928.35 261.614C1934.74 267.893 1942.38 272.931 1951.1 276.546C1959.83 280.196 1969.44 282.058 1979.62 282.058C1989.81 282.058 1999.67 280.16 2008.51 276.436C2017.35 272.712 2025.01 267.601 2031.4 261.212C2037.8 254.824 2042.87 247.303 2046.49 238.833C2050.14 230.363 2052 221.2 2052 211.708V211.233C2052 201.559 2050.17 192.359 2046.63 183.962ZM1980.13 252.998C1974.51 252.998 1969.29 251.903 1964.62 249.749C1959.9 247.595 1955.78 244.565 1952.31 240.768C1948.88 236.971 1946.14 232.554 1944.24 227.662C1942.3 222.77 1941.35 217.403 1941.35 211.708V211.233C1941.35 205.757 1942.27 200.427 1944.02 195.353C1945.77 190.351 1948.33 186.007 1951.69 182.429C1955.01 178.851 1959.1 175.894 1963.85 173.704C1968.56 171.55 1973.85 170.454 1979.62 170.454C1985.39 170.454 1990.69 171.55 1995.36 173.704C2000.11 175.93 2004.16 178.815 2007.63 182.575C2011.1 186.262 2013.8 190.68 2015.74 195.681C2017.67 200.683 2018.62 206.086 2018.62 211.708V212.219C2018.62 217.732 2017.71 223.025 2015.96 227.954C2014.24 232.809 2011.61 237.154 2008.25 240.878C2004.86 244.601 2000.77 247.595 1996.09 249.749C1991.46 251.903 1986.05 252.998 1980.06 252.998H1980.13Z" fill="#D7282F"/>
<path d="M1475.72 126.134H1502.38L1533.97 97.1104H1494.93L1475.72 126.134Z" fill="#D7282F"/>
<path d="M1856.42 240.878C1853.2 244.601 1849.37 247.595 1844.91 249.749C1840.49 251.903 1835.42 252.998 1829.79 252.998C1824.5 252.998 1819.57 251.903 1815.15 249.749C1810.7 247.595 1806.79 244.565 1803.54 240.768C1800.29 236.971 1797.7 232.59 1795.91 227.662C1794.08 222.806 1793.13 217.403 1793.13 211.708V211.233C1793.13 205.757 1794.01 200.427 1795.65 195.352C1797.29 190.351 1799.78 186.006 1802.92 182.392C1806.06 178.851 1809.93 175.894 1814.42 173.667C1818.88 171.513 1823.88 170.418 1829.32 170.418C1834.76 170.418 1839.76 171.513 1844.18 173.667C1848.67 175.857 1852.51 178.778 1855.79 182.538C1857.69 184.692 1859.34 187.248 1860.8 189.986H1894.69C1894.03 187.795 1893.41 185.787 1892.68 183.962C1889.32 175.565 1884.57 168.081 1878.54 161.729C1872.52 155.377 1865.29 150.265 1857 146.615C1848.71 142.964 1839.54 141.102 1829.79 141.102C1820.04 141.102 1810.88 143 1802.59 146.724C1794.3 150.485 1787.03 155.632 1781.08 161.948C1775.06 168.3 1770.24 175.821 1766.8 184.327C1763.33 192.76 1761.62 201.997 1761.62 211.671V212.182C1761.62 221.674 1763.33 230.838 1766.69 239.308C1770.05 247.777 1774.84 255.262 1780.86 261.577C1786.89 267.857 1794.12 272.895 1802.37 276.546C1810.66 280.196 1819.72 282.058 1829.32 282.058C1838.92 282.058 1848.31 280.16 1856.67 276.436C1865.03 272.712 1872.26 267.601 1878.33 261.212C1884.35 254.823 1889.13 247.303 1892.6 238.833C1893.59 236.424 1894.39 233.868 1895.09 231.203H1862.44C1860.91 234.781 1858.9 238.03 1856.45 240.878H1856.42Z" fill="#D7282F"/>
<path d="M1516.33 240.914C1513.27 244.638 1509.58 247.595 1505.34 249.749C1501.14 251.903 1496.28 252.962 1490.88 252.962C1485.8 252.962 1481.09 251.866 1476.89 249.749C1472.62 247.595 1468.9 244.601 1465.76 240.804C1462.62 237.008 1460.13 232.59 1458.42 227.662C1457.58 225.325 1456.96 222.952 1456.52 220.433H1555.77C1556.1 217.549 1556.32 214.629 1556.32 211.708V211.233C1556.32 201.559 1554.68 192.395 1551.43 183.999C1548.18 175.565 1543.61 168.118 1537.84 161.765C1532.07 155.413 1525.06 150.302 1517.1 146.615C1509.1 142.964 1500.3 141.102 1490.88 141.102C1481.46 141.102 1472.62 143 1464.66 146.724C1456.66 150.485 1449.69 155.632 1443.92 161.984C1438.15 168.337 1433.55 175.857 1430.23 184.364C1426.94 192.797 1425.22 201.997 1425.22 211.671V212.182C1425.22 221.674 1426.87 230.801 1430.08 239.271C1433.33 247.741 1437.89 255.225 1443.7 261.541C1449.51 267.82 1456.48 272.858 1464.41 276.509C1472.4 280.16 1481.13 282.022 1490.41 282.022C1499.68 282.022 1508.7 280.123 1516.77 276.363C1524.8 272.639 1531.78 267.492 1537.59 261.103C1543.32 254.787 1547.92 247.303 1551.21 238.906H1517.68C1517.21 239.563 1516.84 240.293 1516.3 240.878L1516.33 240.914ZM1458.2 195.316C1459.8 190.314 1462.14 185.97 1465.17 182.356C1468.2 178.778 1471.89 175.857 1476.16 173.667C1480.44 171.513 1485.22 170.418 1490.41 170.418C1495.59 170.418 1500.41 171.513 1504.65 173.667C1508.88 175.821 1512.64 178.814 1515.75 182.502C1518.89 186.189 1521.34 190.606 1523.12 195.608C1523.38 196.302 1523.53 196.995 1523.75 197.652H1457.54C1457.76 196.886 1457.94 196.083 1458.2 195.316Z" fill="#D7282F"/>
<path d="M1051.84 379.972H1076.48V445.722H1088.32V379.972H1112.97V368.91H1051.84V379.972Z" fill="#D7282F"/>
<path d="M1201.99 392.458C1201.99 386.324 1199.8 380.775 1195.82 376.759C1190.75 371.721 1182.9 368.91 1173.73 368.91H1140.43V445.722H1152.11V417.21H1170.52L1191.81 445.722H1206.27L1183.26 415.129C1194.98 412.062 1201.92 403.811 1201.92 392.421L1201.99 392.458ZM1152.18 379.972H1173.15C1183.99 379.972 1190.2 384.608 1190.2 392.932C1190.2 401.256 1183.48 406.331 1173.04 406.331H1152.18V379.972Z" fill="#D7282F"/>
<path d="M1259.51 368.399L1224.53 445.722H1236.8L1245.49 426.337H1283.24L1291.86 445.722H1304.53L1269.51 368.399H1259.55H1259.51ZM1278.42 415.348H1250.27L1264.4 383.915L1278.46 415.348H1278.42Z" fill="#D7282F"/>
<path d="M1384.07 424.511L1340.36 368.91H1330.06V445.722H1341.52V388.77L1385.89 445.065L1386.4 445.722H1395.57V368.91H1384.07V424.511Z" fill="#D7282F"/>
<path d="M1456.74 401.658C1439.5 397.97 1438.15 393.954 1438.15 388.88C1438.15 382.893 1443.88 378.731 1452.06 378.731C1459.44 378.731 1465.83 381.14 1472.15 386.324L1473.54 387.42L1480.44 378.293L1479.16 377.234C1470.94 370.626 1462.91 367.815 1452.28 367.815C1437.31 367.815 1426.46 376.978 1426.46 389.793C1426.46 404.067 1436.84 409.251 1452.46 412.646C1468.9 416.115 1470.21 420.094 1470.21 425.132C1470.21 431.594 1464.3 435.902 1455.57 435.902C1446.33 435.902 1439.36 433.018 1431.54 425.972L1430.23 424.767L1422.85 433.456L1424.09 434.587C1433.4 442.911 1443.3 446.781 1455.24 446.781C1471.02 446.781 1482.01 437.545 1482.01 424.11C1482.01 412.245 1474.45 405.527 1456.74 401.694V401.658Z" fill="#D7282F"/>
<path d="M1540.1 368.91H1510.93V445.722H1522.61V419.838H1538.72C1557.01 419.838 1569.28 409.507 1569.28 393.918C1569.28 378.329 1557.82 368.947 1540.1 368.947V368.91ZM1522.61 379.972H1539.48C1550.91 379.972 1557.49 385.156 1557.49 394.429C1557.49 403.191 1550.26 408.85 1539.08 408.85H1522.65V379.972H1522.61Z" fill="#D7282F"/>
<path d="M1632.42 367.669C1610.4 367.669 1593.16 385.083 1593.16 407.535C1593.16 429.987 1609.96 447 1632.2 447C1654.44 447 1671.46 429.586 1671.46 407.097C1671.46 384.608 1654.66 367.632 1632.38 367.632L1632.42 367.669ZM1632.42 435.902C1616.9 435.902 1605.18 423.635 1605.18 407.134C1605.18 390.632 1616.79 378.731 1632.2 378.731C1647.61 378.731 1659.44 391.034 1659.44 407.535C1659.44 424.037 1647.83 435.902 1632.42 435.902Z" fill="#D7282F"/>
<path d="M1762.53 392.458C1762.53 386.324 1760.34 380.775 1756.36 376.759C1751.28 371.721 1743.43 368.91 1734.27 368.91H1700.96V445.722H1712.68V417.21H1731.09L1752.38 445.722H1766.84L1743.83 415.129C1755.56 412.062 1762.49 403.811 1762.49 392.421L1762.53 392.458ZM1712.72 379.972H1733.68C1744.53 379.972 1750.74 384.608 1750.74 392.932C1750.74 401.256 1744.02 406.331 1733.57 406.331H1712.72V379.972Z" fill="#D7282F"/>
<path d="M1786.3 379.972H1810.95V445.722H1822.75V379.972H1847.43V368.91H1786.3V379.972Z" fill="#D7282F"/>
<path d="M1886.65 412.5H1926.71V401.512H1886.65V379.899H1931.42V368.91H1874.93V445.722H1931.97V434.77H1886.65V412.5Z" fill="#D7282F"/>
<path d="M1989.05 401.658C1971.81 397.97 1970.46 393.954 1970.46 388.88C1970.46 382.893 1976.19 378.731 1984.37 378.731C1991.75 378.731 1998.14 381.14 2004.49 386.324L2005.88 387.42L2012.78 378.293L2011.5 377.234C2003.29 370.626 1995.25 367.815 1984.63 367.815C1969.65 367.815 1958.81 376.978 1958.81 389.793C1958.81 404.067 1969.22 409.251 1984.81 412.646C2001.24 416.115 2002.56 420.094 2002.56 425.132C2002.56 431.594 1996.68 435.902 1987.91 435.902C1978.67 435.902 1971.7 433.018 1963.88 425.972L1962.57 424.767L1955.23 433.456L1956.47 434.587C1965.78 442.911 1975.68 446.781 1987.62 446.781C2003.36 446.781 2014.39 437.545 2014.39 424.11C2014.39 412.245 2006.83 405.527 1989.12 401.694L1989.05 401.658Z" fill="#D7282F"/>
</g>
<defs>
<clipPath id="clip0_759_1579">
<rect width="2052" height="447" fill="white"/>
</clipPath>
</defs>
</svg>
