<svg width="562" height="123" viewBox="0 0 562 123" fill="none" xmlns="http://www.w3.org/2000/svg">
<g clip-path="url(#clip0_687_1579)">
<path d="M58.85 84.85C42.77 75.34 22.1 79.17 11.04 72.57C6.33 69.77 5.21 66.88 6.08 64.19H0.98C5.69 89.07 27.19 107.88 53.01 107.88C57.89 107.88 62.58 107.16 67.05 105.91C69.15 98.31 68.1 90.32 58.85 84.85ZM20.07 53.42H0.03C0.03 53.6 0 53.76 0 53.94C0 55.59 0.11 57.21 0.25 58.82H10.37C13.26 56.56 17 54.66 20.07 53.42ZM54.13 32.22C52.74 33.79 51.31 35.51 49.87 37.37C49.87 37.4 49.55 37.73 49.24 38.26C48.4 39.6 47.33 42.59 52.89 44.49C55.75 45.46 59.11 45.97 62.8 46.21C62.86 46.21 62.92 46.23 63 46.23C63.94 46.28 64.9 46.32 65.87 46.35C65.95 46.35 66.03 46.35 66.11 46.35C67.09 46.37 68.09 46.38 69.09 46.38C69.18 46.38 69.29 46.38 69.38 46.38C70.35 46.37 71.32 46.35 72.32 46.32C72.51 46.32 72.69 46.31 72.86 46.31C73.7 46.29 74.54 46.25 75.38 46.23C75.8 46.21 76.2 46.18 76.62 46.17C77.1 46.14 77.59 46.12 78.06 46.1C81.44 45.93 84.93 45.71 88.42 45.51C94.14 45.19 99.88 44.94 105.26 45.13C105.24 45.08 105.23 45.04 105.22 45H105.24C104.86 41.64 103.01 35.42 102.2 33.91H102.19V33.88C93.18 34.77 84.15 35.83 76.8 35.21C76.71 35.21 76.61 35.2 76.52 35.19C76.3 35.17 76.1 35.13 75.87 35.11C72.58 34.73 69.59 33.95 67.1 32.62C64.04 30.96 62.62 29.3 62.28 27.66C62.25 27.51 62.22 27.36 62.21 27.22C62.21 27.18 62.21 27.13 62.21 27.09C62.15 25.85 62.64 24.61 63.51 23.4C63.53 23.38 63.56 23.34 63.58 23.31C63.71 23.14 63.84 22.99 63.96 22.82C64.06 22.72 64.15 22.61 64.24 22.49C64.64 22.03 65.08 21.58 65.58 21.13H11.02C9.71 22.85 8.51 24.67 7.42 26.55H59.5C57.95 28.07 56.22 29.86 54.43 31.9H4.67C3.89 33.66 3.19 35.46 2.61 37.3H41.8C47.34 33.79 54.01 31.59 54.13 32.24M82.24 12.72L77.89 18.06C77.68 18.34 73.9 22.72 80.8 24.61C85.45 25.89 91.35 25.8 97.81 25.17C94.21 19.39 89.57 14.37 84.13 10.36H21.88C19.66 11.99 17.52 13.79 15.57 15.76H73.76C78.63 13.29 83.03 11.96 82.23 12.73M53.01 0C45.09 0 37.59 1.81 30.85 4.99H75.17C68.41 1.81 60.93 0 53 0M105.75 59.23V59.18C87.86 53.21 54.71 60.93 40.2 53.11C39.8 52.9 39.44 52.68 39.1 52.47C38.99 52.42 38.91 52.34 38.81 52.29C38.58 52.13 38.35 51.99 38.13 51.83C38.02 51.76 37.92 51.68 37.83 51.61C37.64 51.47 37.45 51.33 37.29 51.19C37.19 51.1 37.1 51.03 37.02 50.95C36.86 50.81 36.71 50.69 36.57 50.54C36.49 50.47 36.42 50.38 36.35 50.31C36.21 50.17 36.08 50.02 35.96 49.88C35.9 49.81 35.85 49.74 35.78 49.67C35.68 49.53 35.56 49.38 35.45 49.22C35.41 49.16 35.38 49.11 35.34 49.06C35.24 48.9 35.14 48.72 35.06 48.56C35.04 48.52 35.02 48.48 34.99 48.44C34.9 48.25 34.83 48.07 34.76 47.88C34.76 47.86 34.76 47.84 34.74 47.83C34.16 46.07 34.63 44.32 35.74 42.66H1.19C0.82 44.43 0.53 46.24 0.35 48.07H29.26C26.87 50.54 24.21 53.52 21.51 57.01L21.44 57.09C21.44 57.09 21.29 57.27 21.1 57.52C20.29 58.64 18.62 61.78 24.05 63.95C25.07 64.36 26.19 64.72 27.41 65.05C45.67 69.93 84.82 66.21 101.45 75.76C101.45 75.76 101.45 75.74 101.47 75.72C101.49 75.73 101.49 75.74 101.49 75.74C103.7 70.44 104.78 66.41 105.41 61.99C105.55 61.11 105.66 60.17 105.76 59.24H105.74L105.75 59.23Z" fill="white"/>
<path d="M151.06 56.92H160.66V65.41C159.28 66.43 157.63 67.27 155.75 67.9C153.78 68.56 151.67 68.88 149.45 68.88C147.05 68.88 144.86 68.45 142.92 67.6C140.99 66.76 139.3 65.58 137.9 64.1C136.5 62.63 135.41 60.85 134.65 58.79C133.89 56.73 133.51 54.47 133.51 52.04V51.91C133.51 49.67 133.91 47.51 134.69 45.49C135.47 43.49 136.55 41.7 137.92 40.2C139.27 38.72 140.9 37.51 142.76 36.6C144.6 35.71 146.62 35.26 148.74 35.26C150.2 35.26 151.57 35.38 152.83 35.62C154.06 35.87 155.2 36.22 156.23 36.64C157.27 37.07 158.26 37.6 159.19 38.22C160.13 38.85 161.06 39.56 161.97 40.32L162.25 40.57L168.09 33.61L167.81 33.37C166.57 32.31 165.27 31.36 163.95 30.55C162.63 29.73 161.21 29.05 159.73 28.5C158.27 27.94 156.64 27.51 154.88 27.21C153.17 26.91 151.22 26.76 149.08 26.76C145.43 26.76 142.02 27.43 138.94 28.77C135.87 30.11 133.17 31.95 130.94 34.25C128.71 36.53 126.95 39.24 125.7 42.31C124.46 45.36 123.84 48.62 123.84 52V52.14C123.84 55.71 124.45 59.05 125.65 62.07C126.86 65.11 128.58 67.79 130.78 70.02C132.98 72.27 135.67 74.05 138.77 75.33C141.87 76.61 145.37 77.25 149.15 77.25C151.27 77.25 153.33 77.05 155.27 76.65C157.19 76.27 159.03 75.72 160.74 75.03C162.4 74.35 164 73.52 165.47 72.59C166.94 71.66 168.28 70.68 169.46 69.67L169.59 69.56V48.81H148.22L151.08 56.91L151.06 56.92Z" fill="white"/>
<path d="M191.37 41.06C189.63 42.43 188.2 44.17 187.1 46.28V39.4H177.97V76.43H187.1V62.25C187.1 59.92 187.39 57.84 187.97 56.08C188.54 54.33 189.37 52.86 190.43 51.72C191.48 50.58 192.75 49.7 194.21 49.13C195.68 48.56 197.32 48.26 199.09 48.26H199.95V38.74H199.59C196.31 38.58 193.55 39.37 191.37 41.07V41.06Z" fill="white"/>
<path d="M229.23 60.2099C229.23 62.9299 228.5 65.0699 227.08 66.5599C225.67 68.0499 223.8 68.8099 221.5 68.8099C219.2 68.8099 217.35 68.0799 216.09 66.6399C214.82 65.1899 214.17 63.0699 214.17 60.3399V39.3999H205.05V62.8599C205.05 67.1999 206.21 70.6999 208.5 73.2699C210.8 75.8699 214.1 77.1799 218.3 77.1799C221.15 77.1799 223.53 76.5199 225.36 75.1999C226.84 74.1499 228.14 72.9099 229.23 71.5099V76.4299H238.35V39.3999H229.23V60.2099Z" fill="white"/>
<path d="M280.08 43.6499C278.47 42.0199 276.62 40.7599 274.57 39.9199C272.53 39.0799 270.38 38.6499 268.19 38.6499C265.21 38.6499 262.68 39.3299 260.65 40.6699C258.98 41.7799 257.52 43.1299 256.3 44.6999V39.4099H247.17V87.4399H256.3V71.4999C257.49 72.8899 258.93 74.1399 260.59 75.2199C262.61 76.5399 265.17 77.2099 268.2 77.2099C270.38 77.2099 272.54 76.7899 274.62 75.9399C276.71 75.0899 278.57 73.8299 280.15 72.2199C281.75 70.5899 283.05 68.5699 284.01 66.1899C284.96 63.8199 285.44 61.0599 285.44 58.0099V57.8799C285.44 54.8199 284.94 52.0599 283.97 49.6999C282.99 47.3199 281.68 45.2899 280.09 43.6699L280.08 43.6499ZM266.29 46.6099C267.66 46.6099 268.96 46.8699 270.17 47.3999C271.38 47.9299 272.44 48.6799 273.34 49.6499C274.25 50.6299 274.97 51.8299 275.5 53.2099C276.03 54.5999 276.31 56.1599 276.31 57.8499V57.9799C276.31 59.7099 276.04 61.2999 275.5 62.6999C274.97 64.0899 274.25 65.2699 273.35 66.2199C272.45 67.1699 271.38 67.9099 270.17 68.4399C267.77 69.4899 264.85 69.4999 262.4 68.4399C261.16 67.8999 260.07 67.1499 259.15 66.1799C258.22 65.2099 257.47 64.0099 256.92 62.6199C256.37 61.2299 256.09 59.6699 256.09 57.9799V57.8499C256.09 56.1599 256.37 54.6199 256.92 53.2499C257.47 51.8799 258.22 50.6899 259.15 49.6799C260.07 48.6999 261.16 47.9399 262.4 47.4099C263.62 46.8799 264.93 46.6099 266.3 46.6099H266.29Z" fill="white"/>
<path d="M322.789 44.2899C321.059 42.5499 318.969 41.1499 316.559 40.1499C314.149 39.1599 311.509 38.6499 308.679 38.6499C305.849 38.6499 303.199 39.1699 300.809 40.1899C298.419 41.2099 296.319 42.6299 294.579 44.3599C292.839 46.0999 291.449 48.1599 290.449 50.4899C289.449 52.8099 288.939 55.3299 288.939 57.9799V58.1199C288.939 60.7199 289.429 63.2199 290.399 65.5499C291.389 67.8799 292.769 69.9299 294.509 71.6499C296.259 73.3699 298.349 74.7499 300.739 75.7499C303.139 76.7399 305.759 77.2499 308.549 77.2499C311.339 77.2499 314.039 76.7299 316.449 75.7099C318.859 74.6899 320.969 73.2899 322.719 71.5399C324.469 69.7899 325.859 67.7299 326.859 65.4099C327.859 63.0899 328.369 60.5799 328.369 57.9799V57.8499C328.369 55.1999 327.869 52.6799 326.899 50.3799C325.919 48.0699 324.539 46.0299 322.789 44.2899ZM308.689 69.2999C307.149 69.2999 305.719 68.9999 304.439 68.4099C303.149 67.8199 302.019 66.9899 301.079 65.9499C300.139 64.9099 299.389 63.7099 298.869 62.3599C298.329 61.0199 298.069 59.5499 298.069 57.9899V57.8599C298.069 56.3599 298.309 54.8999 298.789 53.5199C299.269 52.1499 299.979 50.9599 300.899 49.9699C301.809 48.9899 302.929 48.1799 304.239 47.5799C305.519 46.9899 306.979 46.6899 308.549 46.6899C310.119 46.6899 311.579 46.9899 312.869 47.5799C314.159 48.1799 315.299 48.9999 316.239 50.0099C317.179 51.0299 317.919 52.2399 318.449 53.5999C318.979 54.9799 319.249 56.4699 319.249 57.9999V58.1399C319.249 59.6499 319.009 61.0999 318.519 62.4499C318.039 63.7899 317.329 64.9799 316.409 65.9999C315.489 67.0199 314.369 67.8399 313.079 68.4299C311.799 69.0199 310.329 69.3199 308.689 69.3199V69.2999Z" fill="white"/>
<path d="M360.149 50.0198L345.719 27.5798H336.149V76.4298H345.279V42.9298L359.749 64.6098H360.419L375.039 42.7898V76.4298H384.169V27.5798H374.579L360.149 50.0198Z" fill="white"/>
<path d="M463.25 39.4099H453.46L445.26 51.0799L437.19 39.5599L437.08 39.4099H427.09L440.2 57.6399L426.6 76.4299H436.39L445.06 63.9999L453.8 76.4299H463.79L450.13 57.4399L463.25 39.4099Z" fill="white"/>
<path d="M477.319 39.4099H468.189V76.4399H477.319V39.4099Z" fill="white"/>
<path d="M477.47 24.95H468.08V33.59H477.47V24.95Z" fill="white"/>
<path d="M560.46 50.3899C559.48 48.0799 558.11 46.0399 556.36 44.2999C554.62 42.5599 552.52 41.1599 550.13 40.1599C547.73 39.1699 545.08 38.6599 542.25 38.6599C539.42 38.6599 536.77 39.1799 534.37 40.1999C531.97 41.2299 529.87 42.6399 528.14 44.3699C526.4 46.1099 525 48.1699 524.01 50.4999C523.01 52.8099 522.5 55.3299 522.5 57.9899V58.1299C522.5 60.7299 522.99 63.2399 523.97 65.5599C524.94 67.8799 526.32 69.9299 528.07 71.6599C529.82 73.3799 531.91 74.7599 534.3 75.7499C536.69 76.7499 539.32 77.2599 542.11 77.2599C544.9 77.2599 547.6 76.7399 550.02 75.7199C552.44 74.6999 554.54 73.2999 556.29 71.5499C558.04 69.7999 559.43 67.7399 560.42 65.4199C561.42 63.0999 561.93 60.5899 561.93 57.9899V57.8599C561.93 55.2099 561.43 52.6899 560.46 50.3899ZM542.25 69.2999C540.71 69.2999 539.28 68.9999 538 68.4099C536.71 67.8199 535.58 66.9899 534.63 65.9499C533.69 64.9099 532.94 63.6999 532.42 62.3599C531.89 61.0199 531.63 59.5499 531.63 57.9899V57.8599C531.63 56.3599 531.88 54.8999 532.36 53.5099C532.84 52.1399 533.54 50.9499 534.46 49.9699C535.37 48.9899 536.49 48.1799 537.79 47.5799C539.08 46.9899 540.53 46.6899 542.11 46.6899C543.69 46.6899 545.14 46.9899 546.42 47.5799C547.72 48.1899 548.83 48.9799 549.78 50.0099C550.73 51.0199 551.47 52.2299 552 53.5999C552.53 54.9699 552.79 56.4499 552.79 57.9899V58.1299C552.79 59.6399 552.54 61.0899 552.06 62.4399C551.59 63.7699 550.87 64.9599 549.95 65.9799C549.02 66.9999 547.9 67.8199 546.62 68.4099C545.35 68.9999 543.87 69.2999 542.23 69.2999H542.25Z" fill="white"/>
<path d="M404.12 34.5499H411.42L420.07 26.5999H409.38L404.12 34.5499Z" fill="white"/>
<path d="M508.37 65.9799C507.49 66.9999 506.44 67.8199 505.22 68.4099C504.01 68.9999 502.62 69.2999 501.08 69.2999C499.63 69.2999 498.28 68.9999 497.07 68.4099C495.85 67.8199 494.78 66.9899 493.89 65.9499C493 64.9099 492.29 63.7099 491.8 62.3599C491.3 61.0299 491.04 59.5499 491.04 57.9899V57.8599C491.04 56.3599 491.28 54.8999 491.73 53.5099C492.18 52.1399 492.86 50.9499 493.72 49.9599C494.58 48.9899 495.64 48.1799 496.87 47.5699C498.09 46.9799 499.46 46.6799 500.95 46.6799C502.44 46.6799 503.81 46.9799 505.02 47.5699C506.25 48.1699 507.3 48.9699 508.2 49.9999C508.72 50.5899 509.17 51.2899 509.57 52.0399H518.85C518.67 51.4399 518.5 50.8899 518.3 50.3899C517.38 48.0899 516.08 46.0399 514.43 44.2999C512.78 42.5599 510.8 41.1599 508.53 40.1599C506.26 39.1599 503.75 38.6499 501.08 38.6499C498.41 38.6499 495.9 39.1699 493.63 40.1899C491.36 41.2199 489.37 42.6299 487.74 44.3599C486.09 46.0999 484.77 48.1599 483.83 50.4899C482.88 52.7999 482.41 55.3299 482.41 57.9799V58.1199C482.41 60.7199 482.88 63.2299 483.8 65.5499C484.72 67.8699 486.03 69.9199 487.68 71.6499C489.33 73.3699 491.31 74.7499 493.57 75.7499C495.84 76.7499 498.32 77.2599 500.95 77.2599C503.58 77.2599 506.15 76.7399 508.44 75.7199C510.73 74.6999 512.71 73.2999 514.37 71.5499C516.02 69.7999 517.33 67.7399 518.28 65.4199C518.55 64.7599 518.77 64.0599 518.96 63.3299H510.02C509.6 64.3099 509.05 65.1999 508.38 65.9799H508.37Z" fill="white"/>
<path d="M415.24 65.9899C414.4 67.0099 413.39 67.8199 412.23 68.4099C411.08 68.9999 409.75 69.2899 408.27 69.2899C406.88 69.2899 405.59 68.9899 404.44 68.4099C403.27 67.8199 402.25 66.9999 401.39 65.9599C400.53 64.9199 399.85 63.7099 399.38 62.3599C399.15 61.7199 398.98 61.0699 398.86 60.3799H426.04C426.13 59.5899 426.19 58.7899 426.19 57.9899V57.8599C426.19 55.2099 425.74 52.6999 424.85 50.3999C423.96 48.0899 422.71 46.0499 421.13 44.3099C419.55 42.5699 417.63 41.1699 415.45 40.1599C413.26 39.1599 410.85 38.6499 408.27 38.6499C405.69 38.6499 403.27 39.1699 401.09 40.1899C398.9 41.2199 396.99 42.6299 395.41 44.3699C393.83 46.1099 392.57 48.1699 391.66 50.4999C390.76 52.8099 390.29 55.3299 390.29 57.9799V58.1199C390.29 60.7199 390.74 63.2199 391.62 65.5399C392.51 67.8599 393.76 69.9099 395.35 71.6399C396.94 73.3599 398.85 74.7399 401.02 75.7399C403.21 76.7399 405.6 77.2499 408.14 77.2499C410.68 77.2499 413.15 76.7299 415.36 75.6999C417.56 74.6799 419.47 73.2699 421.06 71.5199C422.63 69.7899 423.89 67.7399 424.79 65.4399H415.61C415.48 65.6199 415.38 65.8199 415.23 65.9799L415.24 65.9899ZM399.32 53.4999C399.76 52.1299 400.4 50.9399 401.23 49.9499C402.06 48.9699 403.07 48.1699 404.24 47.5699C405.41 46.9799 406.72 46.6799 408.14 46.6799C409.56 46.6799 410.88 46.9799 412.04 47.5699C413.2 48.1599 414.23 48.9799 415.08 49.9899C415.94 50.9999 416.61 52.2099 417.1 53.5799C417.17 53.7699 417.21 53.9599 417.27 54.1399H399.14C399.2 53.9299 399.25 53.7099 399.32 53.4999Z" fill="white"/>
<path d="M288.04 104.08H294.79V122.09H298.03V104.08H304.78V101.05H288.04V104.08Z" fill="white"/>
<path d="M329.16 107.5C329.16 105.82 328.56 104.3 327.47 103.2C326.08 101.82 323.93 101.05 321.42 101.05H312.3V122.09H315.5V114.28H320.54L326.37 122.09H330.33L324.03 113.71C327.24 112.87 329.14 110.61 329.14 107.49L329.16 107.5ZM315.52 104.08H321.26C324.23 104.08 325.93 105.35 325.93 107.63C325.93 109.91 324.09 111.3 321.23 111.3H315.52V104.08Z" fill="white"/>
<path d="M344.91 100.91L335.33 122.09H338.69L341.07 116.78H351.41L353.77 122.09H357.24L347.65 100.91H344.92H344.91ZM350.09 113.77H342.38L346.25 105.16L350.1 113.77H350.09Z" fill="white"/>
<path d="M379.02 116.28L367.05 101.05H364.23V122.09H367.37V106.49L379.52 121.91L379.66 122.09H382.17V101.05H379.02V116.28Z" fill="white"/>
<path d="M398.92 110.02C394.2 109.01 393.83 107.91 393.83 106.52C393.83 104.88 395.4 103.74 397.64 103.74C399.66 103.74 401.41 104.4 403.14 105.82L403.52 106.12L405.41 103.62L405.06 103.33C402.81 101.52 400.61 100.75 397.7 100.75C393.6 100.75 390.63 103.26 390.63 106.77C390.63 110.68 393.47 112.1 397.75 113.03C402.25 113.98 402.61 115.07 402.61 116.45C402.61 118.22 400.99 119.4 398.6 119.4C396.07 119.4 394.16 118.61 392.02 116.68L391.66 116.35L389.64 118.73L389.98 119.04C392.53 121.32 395.24 122.38 398.51 122.38C402.83 122.38 405.84 119.85 405.84 116.17C405.84 112.92 403.77 111.08 398.92 110.03V110.02Z" fill="white"/>
<path d="M421.75 101.05H413.76V122.09H416.96V115H421.37C426.38 115 429.74 112.17 429.74 107.9C429.74 103.63 426.6 101.06 421.75 101.06V101.05ZM416.96 104.08H421.58C424.71 104.08 426.51 105.5 426.51 108.04C426.51 110.44 424.53 111.99 421.47 111.99H416.97V104.08H416.96Z" fill="white"/>
<path d="M447.03 100.71C441 100.71 436.28 105.48 436.28 111.63C436.28 117.78 440.88 122.44 446.97 122.44C453.06 122.44 457.72 117.67 457.72 111.51C457.72 105.35 453.12 100.7 447.02 100.7L447.03 100.71ZM447.03 119.4C442.78 119.4 439.57 116.04 439.57 111.52C439.57 107 442.75 103.74 446.97 103.74C451.19 103.74 454.43 107.11 454.43 111.63C454.43 116.15 451.25 119.4 447.03 119.4Z" fill="white"/>
<path d="M482.66 107.5C482.66 105.82 482.06 104.3 480.97 103.2C479.58 101.82 477.43 101.05 474.92 101.05H465.8V122.09H469.01V114.28H474.05L479.88 122.09H483.84L477.54 113.71C480.75 112.87 482.65 110.61 482.65 107.49L482.66 107.5ZM469.02 104.08H474.76C477.73 104.08 479.43 105.35 479.43 107.63C479.43 109.91 477.59 111.3 474.73 111.3H469.02V104.08Z" fill="white"/>
<path d="M489.17 104.08H495.92V122.09H499.15V104.08H505.91V101.05H489.17V104.08Z" fill="white"/>
<path d="M516.65 112.99H527.62V109.98H516.65V104.06H528.91V101.05H513.44V122.09H529.06V119.09H516.65V112.99Z" fill="white"/>
<path d="M544.69 110.02C539.97 109.01 539.6 107.91 539.6 106.52C539.6 104.88 541.17 103.74 543.41 103.74C545.43 103.74 547.18 104.4 548.92 105.82L549.3 106.12L551.19 103.62L550.84 103.33C548.59 101.52 546.39 100.75 543.48 100.75C539.38 100.75 536.41 103.26 536.41 106.77C536.41 110.68 539.26 112.1 543.53 113.03C548.03 113.98 548.39 115.07 548.39 116.45C548.39 118.22 546.78 119.4 544.38 119.4C541.85 119.4 539.94 118.61 537.8 116.68L537.44 116.35L535.43 118.73L535.77 119.04C538.32 121.32 541.03 122.38 544.3 122.38C548.61 122.38 551.63 119.85 551.63 116.17C551.63 112.92 549.56 111.08 544.71 110.03L544.69 110.02Z" fill="white"/>
</g>
<defs>
<clipPath id="clip0_687_1579">
<rect width="561.93" height="122.44" fill="white"/>
</clipPath>
</defs>
</svg>
