<svg width="2070" height="451" viewBox="0 0 2070 451" fill="none" xmlns="http://www.w3.org/2000/svg">
<g clip-path="url(#clip0_759_1550)">
<path d="M216.788 312.54C157.553 277.51 81.4105 291.618 40.6684 267.307C23.318 256.993 19.1922 246.348 22.3971 236.44H3.61006C20.9604 328.084 100.161 397.369 195.275 397.369C213.251 397.369 230.528 394.717 246.994 390.113C254.73 362.119 250.862 332.688 216.788 312.54ZM73.9325 196.769H0.110512C0.110512 197.432 0 198.022 0 198.685C0 204.762 0.405211 210.729 0.920933 216.66H38.2003C48.8463 208.335 62.6235 201.337 73.9325 196.769ZM199.4 118.68C194.28 124.463 189.012 130.799 183.708 137.65C183.708 137.761 182.529 138.976 181.387 140.928C178.293 145.864 174.351 156.878 194.833 163.876C205.368 167.449 217.745 169.328 231.338 170.212C231.559 170.212 231.78 170.285 232.075 170.285C235.538 170.469 239.074 170.617 242.648 170.727C242.942 170.727 243.237 170.727 243.532 170.727C247.142 170.801 250.825 170.838 254.509 170.838C254.841 170.838 255.246 170.838 255.577 170.838C259.151 170.801 262.724 170.727 266.408 170.617C267.107 170.617 267.771 170.58 268.397 170.58C271.491 170.506 274.585 170.359 277.68 170.285C279.227 170.212 280.7 170.101 282.248 170.064C284.016 169.954 285.821 169.88 287.552 169.806C300.003 169.18 312.859 168.37 325.716 167.633C346.787 166.454 367.931 165.534 387.75 166.234C387.676 166.049 387.639 165.902 387.602 165.755H387.676C386.276 153.378 379.461 130.467 376.478 124.905H376.441V124.795C343.25 128.073 309.986 131.978 282.911 129.694C282.579 129.694 282.211 129.657 281.879 129.62C281.069 129.546 280.332 129.399 279.485 129.325C267.365 127.926 256.351 125.053 247.178 120.154C235.906 114.039 230.675 107.925 229.423 101.884C229.312 101.331 229.202 100.779 229.165 100.263C229.165 100.116 229.165 99.9316 229.165 99.7843C228.944 95.2168 230.749 90.6494 233.954 86.1924C234.028 86.1187 234.138 85.9714 234.212 85.8609C234.691 85.2347 235.17 84.6822 235.612 84.056C235.98 83.6877 236.311 83.2825 236.643 82.8405C238.116 81.1461 239.737 79.4886 241.579 77.831H40.5947C35.7691 84.1665 31.3486 90.8704 27.3333 97.7952H219.182C213.472 103.394 207.099 109.987 200.506 117.502H17.203C14.3297 123.984 11.7511 130.615 9.61454 137.392H153.98C174.388 124.463 198.958 116.36 199.4 118.754M302.95 46.8533L286.926 66.5229C286.152 67.5542 272.228 83.6877 297.646 90.6494C314.775 95.3642 336.509 95.0327 360.306 92.7121C347.044 71.4218 329.952 52.931 309.912 38.1604H80.6001C72.4222 44.1644 64.539 50.7946 57.3557 58.051H271.712C289.652 48.9529 305.86 44.0539 302.913 46.8901M195.275 0C166.1 0 138.472 6.66702 113.643 18.3803H276.906C252.004 6.66702 224.45 0 195.238 0M389.555 218.17V217.986C323.653 195.996 201.537 224.432 148.086 195.627C146.613 194.854 145.286 194.043 144.034 193.27C143.629 193.086 143.334 192.791 142.966 192.607C142.118 192.018 141.271 191.502 140.461 190.913C140.056 190.655 139.687 190.36 139.356 190.102C138.656 189.586 137.956 189.071 137.366 188.555C136.998 188.224 136.666 187.966 136.372 187.671C135.782 187.155 135.23 186.713 134.714 186.161C134.419 185.903 134.162 185.572 133.904 185.314C133.388 184.798 132.909 184.245 132.467 183.73C132.246 183.472 132.062 183.214 131.804 182.956C131.436 182.441 130.994 181.888 130.588 181.299C130.441 181.078 130.33 180.894 130.183 180.709C129.815 180.12 129.446 179.457 129.152 178.868C129.078 178.72 129.004 178.573 128.894 178.426C128.562 177.726 128.304 177.063 128.047 176.363C128.047 176.289 128.047 176.216 127.973 176.179C125.836 169.696 127.568 163.25 131.657 157.135H4.38364C3.02066 163.655 1.95238 170.322 1.28931 177.063H107.786C98.9819 186.161 89.1832 197.138 79.2371 209.993L78.9792 210.287C78.9792 210.287 78.4267 210.95 77.7268 211.871C74.7429 215.997 68.5911 227.563 88.5938 235.556C92.3512 237.066 96.477 238.392 100.971 239.608C168.236 257.583 312.454 243.88 373.715 279.057C373.715 279.057 373.715 278.983 373.788 278.91C373.862 278.947 373.862 278.983 373.862 278.983C382.003 259.461 385.982 244.617 388.302 228.336C388.818 225.095 389.223 221.632 389.592 218.207H389.518L389.555 218.17Z" fill="#D7282F"/>
<path d="M556.465 209.661H591.828V240.934C586.745 244.691 580.667 247.785 573.741 250.105C566.484 252.537 558.712 253.715 550.534 253.715C541.693 253.715 533.625 252.131 526.479 249C519.369 245.906 513.144 241.56 507.987 236.108C502.829 230.694 498.814 224.137 496.014 216.549C493.215 208.961 491.815 200.637 491.815 191.686V191.207C491.815 182.956 493.289 175 496.162 167.56C499.035 160.193 503.014 153.599 508.06 148.074C513.033 142.623 519.038 138.166 525.89 134.814C532.668 131.536 540.109 129.878 547.918 129.878C553.297 129.878 558.343 130.32 562.985 131.204C567.516 132.125 571.715 133.414 575.509 134.961C579.341 136.545 582.987 138.497 586.413 140.781C589.876 143.102 593.302 145.717 596.654 148.516L597.686 149.437L619.199 123.8L618.167 122.916C613.599 119.012 608.81 115.513 603.948 112.529C599.085 109.509 593.854 107.004 588.403 104.978C583.024 102.915 577.02 101.331 570.536 100.226C564.237 99.1214 557.054 98.5688 549.171 98.5688C535.725 98.5688 523.164 101.037 511.818 105.973C500.509 110.908 490.563 117.686 482.348 126.158C474.133 134.556 467.65 144.538 463.045 155.846C458.477 167.081 456.193 179.089 456.193 191.539V192.054C456.193 205.204 458.44 217.507 462.861 228.631C467.318 239.829 473.654 249.7 481.758 257.914C489.863 266.202 499.772 272.759 511.192 277.473C522.611 282.188 535.504 284.546 549.429 284.546C557.238 284.546 564.827 283.809 571.973 282.336C579.046 280.936 585.824 278.91 592.123 276.368C598.238 273.864 604.132 270.806 609.547 267.381C614.962 263.955 619.898 260.345 624.245 256.625L624.724 256.22V179.789H546.003L556.538 209.624L556.465 209.661Z" fill="#53575A"/>
<path d="M704.956 151.242C698.546 156.288 693.278 162.697 689.226 170.469V145.127H655.594V281.525H689.226V229.294C689.226 220.712 690.295 213.05 692.431 206.567C694.531 200.121 697.588 194.706 701.493 190.507C705.361 186.308 710.039 183.067 715.418 180.967C720.833 178.868 726.874 177.763 733.394 177.763H736.562V142.696H735.236C723.153 142.107 712.986 145.017 704.956 151.279V151.242Z" fill="#53575A"/>
<path d="M844.422 221.78C844.422 231.799 841.733 239.681 836.502 245.17C831.308 250.658 824.42 253.457 815.947 253.457C807.474 253.457 800.66 250.768 796.018 245.464C791.34 240.123 788.945 232.314 788.945 222.259V145.127H755.35V231.541C755.35 247.527 759.623 260.419 768.058 269.885C776.531 279.462 788.687 284.288 804.159 284.288C814.658 284.288 823.425 281.857 830.166 276.994C835.618 273.127 840.407 268.559 844.422 263.403V281.525H878.018V145.127H844.422V221.78Z" fill="#53575A"/>
<path d="M1031.74 160.782C1025.81 154.778 1018.99 150.137 1011.44 147.043C1003.93 143.949 996.007 142.365 987.94 142.365C976.962 142.365 967.642 144.87 960.165 149.806C954.013 153.894 948.634 158.867 944.14 164.65V145.164H910.508V322.08H944.14V263.366C948.524 268.486 953.829 273.09 959.944 277.068C967.385 281.93 976.815 284.398 987.977 284.398C996.007 284.398 1003.96 282.851 1011.63 279.72C1019.33 276.589 1026.18 271.948 1032 266.018C1037.89 260.014 1042.68 252.573 1046.22 243.807C1049.72 235.077 1051.48 224.911 1051.48 213.676V213.197C1051.48 201.926 1049.64 191.76 1046.07 183.067C1042.46 174.3 1037.63 166.823 1031.78 160.856L1031.74 160.782ZM980.941 171.685C985.988 171.685 990.776 172.643 995.234 174.595C999.691 176.547 1003.6 179.31 1006.91 182.883C1010.26 186.493 1012.92 190.913 1014.87 195.996C1016.82 201.116 1017.85 206.862 1017.85 213.087V213.566C1017.85 219.938 1016.86 225.795 1014.87 230.952C1012.92 236.072 1010.26 240.418 1006.95 243.917C1003.63 247.417 999.691 250.142 995.234 252.095C986.393 255.962 975.636 255.999 966.611 252.095C962.043 250.106 958.028 247.343 954.639 243.77C951.213 240.197 948.45 235.777 946.424 230.657C944.398 225.537 943.367 219.791 943.367 213.566V213.087C943.367 206.862 944.398 201.189 946.424 196.143C948.45 191.097 951.213 186.714 954.639 182.993C958.028 179.384 962.043 176.584 966.611 174.632C971.105 172.68 975.931 171.685 980.978 171.685H980.941Z" fill="#53575A"/>
<path d="M1189.07 163.14C1182.7 156.73 1175 151.574 1166.12 147.89C1157.24 144.244 1147.52 142.365 1137.09 142.365C1126.67 142.365 1116.91 144.28 1108.1 148.037C1099.3 151.795 1091.56 157.025 1085.15 163.397C1078.74 169.807 1073.62 177.394 1069.94 185.977C1066.26 194.522 1064.38 203.805 1064.38 213.566V214.081C1064.38 223.658 1066.18 232.867 1069.76 241.449C1073.4 250.032 1078.49 257.583 1084.9 263.918C1091.34 270.254 1099.04 275.337 1107.84 279.02C1116.69 282.667 1126.34 284.546 1136.61 284.546C1146.89 284.546 1156.84 282.63 1165.72 278.873C1174.59 275.116 1182.37 269.959 1188.81 263.513C1195.26 257.067 1200.38 249.479 1204.06 240.934C1207.75 232.388 1209.63 223.143 1209.63 213.566V213.087C1209.63 203.326 1207.78 194.044 1204.21 185.572C1200.6 177.063 1195.52 169.549 1189.07 163.14ZM1137.13 255.262C1131.46 255.262 1126.19 254.157 1121.47 251.984C1116.72 249.811 1112.56 246.754 1109.1 242.923C1105.63 239.092 1102.87 234.672 1100.96 229.699C1098.97 224.763 1098.01 219.349 1098.01 213.603V213.124C1098.01 207.599 1098.89 202.221 1100.66 197.138C1102.43 192.091 1105.05 187.708 1108.43 184.061C1111.79 180.452 1115.91 177.468 1120.74 175.258C1125.45 173.085 1130.83 171.98 1136.61 171.98C1142.4 171.98 1147.78 173.085 1152.53 175.258C1157.28 177.468 1161.48 180.489 1164.94 184.209C1168.41 187.966 1171.13 192.423 1173.08 197.432C1175.04 202.515 1176.03 208.004 1176.03 213.639V214.155C1176.03 219.717 1175.15 225.058 1173.34 230.031C1171.57 234.967 1168.96 239.35 1165.57 243.107C1162.18 246.864 1158.05 249.884 1153.3 252.058C1148.59 254.231 1143.17 255.336 1137.13 255.336V255.262Z" fill="#53575A"/>
<path d="M1326.7 184.246L1273.54 101.589H1238.29V281.525H1271.92V158.13L1325.22 237.987H1327.69L1381.55 157.614V281.525H1415.18V101.589H1379.85L1326.7 184.246Z" fill="#53575A"/>
<path d="M1706.49 145.164H1670.43L1640.22 188.15L1610.49 145.717L1610.09 145.164H1573.29L1621.58 212.313L1571.48 281.525H1607.54L1639.48 235.74L1671.68 281.525H1708.48L1658.16 211.577L1706.49 145.164Z" fill="#53575A"/>
<path d="M1758.32 145.164H1724.69V281.562H1758.32V145.164Z" fill="#53575A"/>
<path d="M1758.87 91.9019H1724.28V123.727H1758.87V91.9019Z" fill="#53575A"/>
<path d="M2064.58 185.609C2060.97 177.1 2055.93 169.586 2049.48 163.176C2043.07 156.767 2035.34 151.61 2026.53 147.927C2017.69 144.28 2007.93 142.402 1997.5 142.402C1987.08 142.402 1977.32 144.317 1968.48 148.074C1959.63 151.868 1951.9 157.062 1945.53 163.434C1939.12 169.843 1933.96 177.431 1930.31 186.014C1926.63 194.522 1924.75 203.805 1924.75 213.603V214.118C1924.75 223.695 1926.55 232.941 1930.16 241.486C1933.74 250.032 1938.82 257.583 1945.27 263.955C1951.71 270.291 1959.41 275.374 1968.22 279.021C1977.02 282.704 1986.71 284.583 1996.99 284.583C2007.27 284.583 2017.21 282.667 2026.13 278.91C2035.04 275.153 2042.78 269.996 2049.22 263.55C2055.67 257.104 2060.79 249.516 2064.44 240.971C2068.12 232.425 2070 223.18 2070 213.603V213.124C2070 203.363 2068.16 194.08 2064.58 185.609ZM1997.5 255.262C1991.83 255.262 1986.56 254.157 1981.85 251.984C1977.1 249.811 1972.93 246.754 1969.43 242.923C1965.97 239.092 1963.21 234.635 1961.29 229.699C1959.34 224.764 1958.38 219.349 1958.38 213.603V213.124C1958.38 207.599 1959.3 202.221 1961.07 197.101C1962.84 192.055 1965.42 187.671 1968.81 184.062C1972.16 180.452 1976.29 177.468 1981.07 175.258C1985.83 173.085 1991.17 171.98 1996.99 171.98C2002.81 171.98 2008.15 173.085 2012.86 175.258C2017.65 177.505 2021.74 180.415 2025.24 184.209C2028.74 187.929 2031.47 192.386 2033.42 197.432C2035.37 202.479 2036.33 207.93 2036.33 213.603V214.118C2036.33 219.68 2035.41 225.021 2033.64 229.994C2031.91 234.893 2029.26 239.276 2025.87 243.033C2022.44 246.79 2018.32 249.811 2013.6 251.984C2008.92 254.157 2003.47 255.262 1997.43 255.262H1997.5Z" fill="#53575A"/>
<path d="M1488.67 127.263H1515.56L1547.43 97.9795H1508.05L1488.67 127.263Z" fill="#53575A"/>
<path d="M1872.7 243.033C1869.46 246.79 1865.59 249.811 1861.1 251.984C1856.64 254.157 1851.52 255.262 1845.85 255.262C1840.5 255.262 1835.53 254.157 1831.07 251.984C1826.58 249.811 1822.64 246.754 1819.36 242.923C1816.08 239.092 1813.47 234.672 1811.66 229.699C1809.82 224.8 1808.86 219.349 1808.86 213.603V213.124C1808.86 207.599 1809.75 202.221 1811.4 197.101C1813.06 192.055 1815.57 187.671 1818.73 184.025C1821.9 180.452 1825.81 177.468 1830.34 175.221C1834.83 173.048 1839.88 171.943 1845.37 171.943C1850.86 171.943 1855.9 173.048 1860.36 175.221C1864.89 177.431 1868.76 180.378 1872.07 184.172C1873.99 186.345 1875.65 188.924 1877.12 191.686H1911.31C1910.64 189.476 1910.02 187.45 1909.28 185.609C1905.89 177.137 1901.1 169.586 1895.02 163.176C1888.95 156.767 1881.65 151.61 1873.29 147.927C1864.93 144.244 1855.68 142.365 1845.85 142.365C1836.01 142.365 1826.76 144.28 1818.4 148.037C1810.04 151.831 1802.71 157.025 1796.7 163.397C1790.63 169.807 1785.76 177.394 1782.3 185.977C1778.8 194.486 1777.07 203.805 1777.07 213.566V214.081C1777.07 223.658 1778.8 232.904 1782.19 241.449C1785.58 249.995 1790.41 257.546 1796.48 263.918C1802.56 270.254 1809.86 275.337 1818.18 279.02C1826.54 282.704 1835.68 284.582 1845.37 284.582C1855.05 284.582 1864.52 282.667 1872.96 278.91C1881.39 275.153 1888.69 269.996 1894.8 263.55C1900.88 257.104 1905.71 249.516 1909.21 240.971C1910.2 238.54 1911.01 235.961 1911.71 233.272H1878.78C1877.23 236.882 1875.2 240.16 1872.74 243.033H1872.7Z" fill="#53575A"/>
<path d="M1529.63 243.07C1526.54 246.827 1522.82 249.811 1518.55 251.984C1514.31 254.157 1509.41 255.225 1503.96 255.225C1498.84 255.225 1494.09 254.12 1489.85 251.984C1485.54 249.811 1481.78 246.79 1478.61 242.96C1475.45 239.129 1472.94 234.672 1471.21 229.699C1470.36 227.342 1469.74 224.948 1469.29 222.406H1569.42C1569.75 219.496 1569.97 216.549 1569.97 213.603V213.124C1569.97 203.363 1568.31 194.117 1565.03 185.645C1561.76 177.137 1557.15 169.622 1551.33 163.213C1545.51 156.804 1538.44 151.647 1530.41 147.927C1522.34 144.244 1513.46 142.365 1503.96 142.365C1494.45 142.365 1485.54 144.28 1477.51 148.037C1469.44 151.831 1462.41 157.025 1456.59 163.434C1450.77 169.843 1446.12 177.431 1442.77 186.014C1439.46 194.522 1437.72 203.805 1437.72 213.566V214.081C1437.72 223.658 1439.38 232.867 1442.62 241.413C1445.9 249.958 1450.51 257.509 1456.36 263.882C1462.22 270.217 1469.26 275.3 1477.25 278.984C1485.32 282.667 1494.12 284.546 1503.48 284.546C1512.84 284.546 1521.93 282.63 1530.08 278.836C1538.18 275.079 1545.22 269.886 1551.07 263.44C1556.86 257.067 1561.5 249.516 1564.81 241.044H1531C1530.52 241.707 1530.15 242.444 1529.6 243.033L1529.63 243.07ZM1470.99 197.064C1472.61 192.018 1474.97 187.634 1478.02 183.988C1481.08 180.378 1484.8 177.431 1489.11 175.221C1493.42 173.048 1498.25 171.943 1503.48 171.943C1508.71 171.943 1513.57 173.048 1517.85 175.221C1522.12 177.394 1525.91 180.415 1529.04 184.135C1532.21 187.855 1534.68 192.312 1536.49 197.359C1536.74 198.059 1536.89 198.758 1537.11 199.421H1470.33C1470.55 198.648 1470.73 197.838 1470.99 197.064Z" fill="#53575A"/>
<path d="M1061.06 383.372H1085.93V449.711H1097.86V383.372H1122.73V372.211H1061.06V383.372Z" fill="#53575A"/>
<path d="M1212.54 395.97C1212.54 389.781 1210.33 384.183 1206.31 380.131C1201.19 375.048 1193.27 372.211 1184.03 372.211H1150.43V449.711H1162.22V420.943H1180.78L1202.26 449.711H1216.85L1193.64 418.844C1205.46 415.75 1212.46 407.425 1212.46 395.933L1212.54 395.97ZM1162.29 383.372H1183.44C1194.38 383.372 1200.64 388.05 1200.64 396.448C1200.64 404.847 1193.86 409.967 1183.33 409.967H1162.29V383.372Z" fill="#53575A"/>
<path d="M1270.56 371.696L1235.27 449.711H1247.64L1256.41 430.152H1294.5L1303.19 449.711H1315.98L1280.65 371.696H1270.59H1270.56ZM1289.64 419.065H1261.24L1275.49 387.35L1289.67 419.065H1289.64Z" fill="#53575A"/>
<path d="M1396.21 428.31L1352.11 372.211H1341.73V449.711H1353.29V392.249L1398.05 449.048L1398.57 449.711H1407.81V372.211H1396.21V428.31Z" fill="#53575A"/>
<path d="M1469.52 405.252C1452.13 401.531 1450.76 397.48 1450.76 392.36C1450.76 386.319 1456.55 382.12 1464.8 382.12C1472.24 382.12 1478.69 384.551 1485.06 389.781L1486.46 390.886L1493.42 381.678L1492.13 380.609C1483.84 373.942 1475.74 371.106 1465.02 371.106C1449.92 371.106 1438.98 380.352 1438.98 393.28C1438.98 407.683 1449.44 412.913 1465.21 416.339C1481.78 419.838 1483.11 423.853 1483.11 428.936C1483.11 435.456 1477.14 439.802 1468.34 439.802C1459.02 439.802 1451.98 436.892 1444.1 429.783L1442.77 428.568L1435.33 437.334L1436.58 438.476C1445.98 446.875 1455.96 450.779 1468 450.779C1483.92 450.779 1495.01 441.46 1495.01 427.905C1495.01 415.934 1487.38 409.156 1469.52 405.288V405.252Z" fill="#53575A"/>
<path d="M1553.61 372.211H1524.18V449.711H1535.97V423.595H1552.21C1570.67 423.595 1583.05 413.171 1583.05 397.443C1583.05 381.715 1571.48 372.248 1553.61 372.248V372.211ZM1535.97 383.372H1552.99C1564.52 383.372 1571.15 388.603 1571.15 397.959C1571.15 406.799 1563.86 412.508 1552.58 412.508H1536.01V383.372H1535.97Z" fill="#53575A"/>
<path d="M1646.74 370.959C1624.53 370.959 1607.14 388.529 1607.14 411.182C1607.14 433.835 1624.08 451 1646.52 451C1668.95 451 1686.12 433.43 1686.12 410.74C1686.12 388.05 1669.17 370.922 1646.7 370.922L1646.74 370.959ZM1646.74 439.802C1631.08 439.802 1619.26 427.426 1619.26 410.777C1619.26 394.128 1630.97 382.12 1646.52 382.12C1662.06 382.12 1674 394.533 1674 411.182C1674 427.831 1662.28 439.802 1646.74 439.802Z" fill="#53575A"/>
<path d="M1777.99 395.97C1777.99 389.781 1775.78 384.183 1771.77 380.131C1766.64 375.048 1758.72 372.211 1749.48 372.211H1715.88V449.711H1727.71V420.943H1746.27L1767.75 449.711H1782.34L1759.13 418.844C1770.95 415.75 1777.95 407.425 1777.95 395.933L1777.99 395.97ZM1727.74 383.372H1748.89C1759.83 383.372 1766.09 388.05 1766.09 396.448C1766.09 404.847 1759.31 409.967 1748.78 409.967H1727.74V383.372Z" fill="#53575A"/>
<path d="M1801.97 383.372H1826.84V449.711H1838.74V383.372H1863.64V372.211H1801.97V383.372Z" fill="#53575A"/>
<path d="M1903.2 416.192H1943.61V405.105H1903.2V383.299H1948.36V372.211H1891.38V449.711H1948.91V438.661H1903.2V416.192Z" fill="#53575A"/>
<path d="M2006.49 405.252C1989.11 401.531 1987.74 397.48 1987.74 392.36C1987.74 386.319 1993.53 382.12 2001.78 382.12C2009.22 382.12 2015.66 384.551 2022.07 389.781L2023.47 390.886L2030.44 381.678L2029.15 380.609C2020.86 373.942 2012.75 371.106 2002.03 371.106C1986.93 371.106 1975.99 380.352 1975.99 393.28C1975.99 407.683 1986.49 412.913 2002.22 416.339C2018.8 419.838 2020.12 423.853 2020.12 428.936C2020.12 435.456 2014.19 439.802 2005.35 439.802C1996.03 439.802 1988.99 436.892 1981.11 429.783L1979.79 428.568L1972.38 437.334L1973.63 438.476C1983.03 446.875 1993.01 450.779 2005.06 450.779C2020.93 450.779 2032.06 441.46 2032.06 427.905C2032.06 415.934 2024.43 409.156 2006.57 405.288L2006.49 405.252Z" fill="#53575A"/>
</g>
<defs>
<clipPath id="clip0_759_1550">
<rect width="2070" height="451" fill="white"/>
</clipPath>
</defs>
</svg>
